<svg width="187" height="219" viewBox="0 0 187 219" fill="none" xmlns="http://www.w3.org/2000/svg">
<path d="M54.285 108.012L26.1468 98.5398C28.1552 102.586 29.7616 106.192 31.7119 109.604C33.0707 111.976 31.7757 112.625 29.9976 113.361C28.4697 113.988 27.1259 115.424 25.8813 112.719C23.1632 106.809 20.1531 101.032 17.2549 95.2095C16.503 93.698 15.8961 92.1634 17.2601 90.7013C18.5505 89.3178 20.0869 89.4732 21.7527 90.0384C35.3672 94.6529 48.9913 99.239 62.6248 103.797C64.4171 104.4 65.9618 105.179 66.0809 107.261C66.2071 109.443 64.4559 110.179 62.8595 110.97C48.6443 118.02 34.4285 125.069 20.212 132.118C18.2837 133.073 16.328 133.97 13.7882 135.18L41.7669 144.598C39.8602 140.763 38.2863 137.135 36.3049 133.749C34.7074 131.018 36.7341 130.711 38.3041 129.752C40.1804 128.604 41.2435 128.704 42.2734 130.924C44.9521 136.705 47.8872 142.364 50.7224 148.073C51.4682 149.576 52.1162 151.122 50.7851 152.6C49.527 153.994 47.9884 153.906 46.3071 153.326C32.5648 148.664 18.8123 144.035 5.04954 139.438C3.35007 138.866 2.08722 137.991 1.92635 136.14C1.73557 133.929 3.47663 133.19 5.07035 132.4L54.285 108.012Z" fill="#F79517"/>
<path d="M110.938 140.051L82.8002 130.579C84.8086 134.626 86.4149 138.232 88.3652 141.643C89.724 144.015 88.429 144.665 86.6509 145.401C85.123 146.028 83.7793 147.463 82.5346 144.759C79.8165 138.849 76.8064 133.072 73.9082 127.249C73.1564 125.738 72.5494 124.203 73.9134 122.741C75.2039 121.357 76.7402 121.513 78.406 122.078C92.0206 126.692 105.645 131.279 119.278 135.837C121.07 136.44 122.615 137.218 122.734 139.301C122.86 141.483 121.109 142.219 119.513 143.01C105.298 150.059 91.0818 157.108 76.8653 164.157C74.937 165.113 72.9813 166.009 70.4415 167.219L98.4202 176.638C96.5135 172.803 94.9396 169.174 92.9582 165.788C91.3608 163.057 93.3874 162.751 94.9574 161.792C96.8337 160.644 97.8968 160.743 98.9267 162.964C101.605 168.744 104.541 174.404 107.376 180.113C108.122 181.616 108.77 183.162 107.438 184.64C106.18 186.034 104.642 185.945 102.96 185.366C89.2181 180.704 75.4656 176.074 61.7029 171.477C60.0034 170.905 58.7405 170.031 58.5797 168.179C58.3889 165.969 60.1299 165.229 61.7237 164.44L110.938 140.051Z" fill="#F79517"/>
<path d="M167.273 172.249L139.135 162.777C141.143 166.824 142.749 170.43 144.7 173.841C146.058 176.213 144.764 176.862 142.985 177.599C141.457 178.226 140.114 179.661 138.869 176.957C136.151 171.046 133.141 165.269 130.243 159.447C129.491 157.935 128.884 156.401 130.248 154.939C131.538 153.555 133.075 153.711 134.741 154.276C148.355 158.89 161.979 163.476 175.613 168.034C177.405 168.638 178.95 169.416 179.069 171.499C179.195 173.68 177.444 174.417 175.847 175.207C161.632 182.257 147.416 189.306 133.2 196.355C131.271 197.31 129.316 198.207 126.776 199.417L154.755 208.836C152.848 205.001 151.274 201.372 149.293 197.986C147.695 195.255 149.722 194.949 151.292 193.99C153.168 192.841 154.231 192.941 155.261 195.162C157.94 200.942 160.875 206.602 163.71 212.311C164.456 213.813 165.104 215.36 163.773 216.837C162.515 218.232 160.976 218.143 159.295 217.564C145.553 212.902 131.8 208.272 118.037 203.675C116.338 203.103 115.075 202.229 114.914 200.377C114.723 198.167 116.464 197.427 118.058 196.638L167.273 172.249Z" fill="#F79517"/>
<path d="M170.924 96.6958L142.786 87.2238C144.794 91.2705 146.4 94.8763 148.351 98.2878C149.709 100.66 148.414 101.309 146.636 102.045C145.108 102.673 143.765 104.108 142.52 101.403C139.802 95.4932 136.792 89.7161 133.894 83.8935C133.142 82.3821 132.535 80.8475 133.899 79.3854C135.189 78.0019 136.726 78.1573 138.391 78.7225C152.006 83.337 165.63 87.9231 179.263 92.481C181.056 93.0844 182.6 93.8628 182.72 95.9454C182.846 98.1272 181.095 98.8635 179.498 99.6541C165.283 106.704 151.067 113.753 136.851 120.802C134.922 121.757 132.967 122.654 130.427 123.864L158.406 133.282C156.499 129.447 154.925 125.819 152.944 122.433C151.346 119.702 153.373 119.395 154.943 118.436C156.819 117.288 157.882 117.388 158.912 119.608C161.591 125.389 164.526 131.048 167.361 136.758C168.107 138.26 168.755 139.806 167.424 141.284C166.166 142.678 164.627 142.59 162.946 142.01C149.203 137.348 135.451 132.719 121.688 128.122C119.989 127.55 118.726 126.675 118.565 124.824C118.374 122.613 120.115 121.874 121.709 121.084L170.924 96.6958Z" fill="#F79517"/>
<path d="M113.952 64.8145L85.8143 55.3425C87.8227 59.3892 89.429 62.995 91.3794 66.4064C92.7382 68.7783 91.4432 69.4278 89.6651 70.164C88.1372 70.7912 86.7934 72.2264 85.5488 69.5221C82.8307 63.6119 79.8205 57.8348 76.9224 52.0122C76.1705 50.5007 75.5636 48.9661 76.9276 47.504C78.218 46.1205 79.7544 46.2759 81.4202 46.8412C95.0347 51.4556 108.659 56.0418 122.292 60.5997C124.085 61.203 125.629 61.9814 125.748 64.0641C125.875 66.2458 124.123 66.9821 122.527 67.7728C108.312 74.8223 94.096 81.8715 79.8794 88.9206C77.9512 89.8759 75.9955 90.7725 73.4557 91.9827L101.434 101.401C99.5277 97.566 97.9538 93.9374 95.9724 90.5515C94.3749 87.8206 96.4016 87.5141 97.9716 86.555C99.8479 85.4069 100.911 85.5064 101.941 87.7271C104.62 93.5073 107.555 99.167 110.39 104.876C111.136 106.379 111.784 107.925 110.453 109.403C109.194 110.797 107.656 110.708 105.975 110.129C92.2323 105.467 78.4797 100.838 64.717 96.2407C63.0175 95.6686 61.7547 94.7941 61.5938 92.9423C61.403 90.7321 63.1441 89.9924 64.7378 89.2031L113.952 64.8145Z" fill="#F79517"/>
<path d="M173.483 19.7437L145.345 10.2717C147.353 14.3184 148.96 17.9242 150.91 21.3356C152.269 23.7075 150.974 24.357 149.196 25.0932C147.668 25.7204 146.324 27.1556 145.08 24.4513C142.361 18.5411 139.351 12.7639 136.453 6.94138C135.701 5.42993 135.094 3.89533 136.458 2.43324C137.749 1.04973 139.285 1.20513 140.951 1.77038C154.565 6.38481 168.19 10.971 181.823 15.5289C183.615 16.1322 185.16 16.9106 185.279 18.9933C185.405 21.175 183.654 21.9113 182.058 22.702C167.843 29.7515 153.627 36.8007 139.41 43.8498C137.482 44.8051 135.526 45.7017 132.986 46.9119L160.965 56.3301C159.058 52.4952 157.485 48.8666 155.503 45.4807C153.906 42.7498 155.932 42.4433 157.502 41.4842C159.379 40.3361 160.442 40.4356 161.472 42.6563C164.15 48.4365 167.085 54.0962 169.921 59.8054C170.666 61.3081 171.314 62.8543 169.983 64.332C168.725 65.7263 167.187 65.6376 165.505 65.0582C151.763 60.3962 138.011 55.7668 124.248 51.1699C122.548 50.5978 121.285 49.7233 121.125 47.8715C120.934 45.6613 122.675 44.9216 124.269 44.1323L173.483 19.7437Z" fill="#F79517"/>
</svg>
