<svg id="OBJECTS" xmlns="http://www.w3.org/2000/svg" viewBox="0 0 352.21 217.9"><defs><style>.cls-1{fill:#fff;}</style></defs><title>logo-black</title><path class="cls-1" d="M116.18,186.05l7.18-26.63c1.38-5.11,4.55-7.59,9.38-7.59h17.8l3.73-13.66H132.33c-11.32,0-18.08,4.41-20.57,13.38l-9.24,34.5H94l-3.45,13.11h8.42L87.62,241.52h13.79l11.32-42.36h20.56l3.45-13.11Z" transform="translate(-73.9 -136.79)"/><polygon class="cls-1" points="89.76 1.38 62.16 104.74 75.96 104.74 103.56 1.38 89.76 1.38"/><polygon class="cls-1" points="150.34 14.49 153.79 1.38 112.11 1.38 108.66 14.49 122.6 14.49 98.45 104.74 112.25 104.74 136.4 14.49 150.34 14.49"/><path class="cls-1" d="M251,136.79c-11,0-18.22,4.83-20.7,14.21L206,241.52h13.8l22.91-85.28q1.44-5.79,7-5.79c5.94,0,8,2.62,6.63,7.73L234,241.52h13.8l21.95-82.1C273.78,144.51,267.29,136.79,251,136.79Z" transform="translate(-73.9 -136.79)"/><path class="cls-1" d="M297.93,159.42c1.38-5.11,4.41-7.59,9.24-7.59H325l3.73-13.66H306.76c-11.31,0-18.08,4.41-20.56,13.38l-7.73,29.12h-8.56l-3.45,13.11h8.42l-6.62,24.84c-4.14,15.32,1.65,22.9,17.11,22.9H301.1l3.45-13.1H288.13c-5.66,0-7.73-3-6.21-9l6.9-25.67H309.1l3.46-13.11H292.27Z" transform="translate(-73.9 -136.79)"/><path class="cls-1" d="M352.3,183.43l-6.21-3.17c-4.28-2.21-5.93-5.52-4.69-10.08l3.73-13.94a7.67,7.67,0,0,1,7.58-5.79c4.83,0,7,2.9,5.94,7.73L357,164.94h13.8l1.38-5.52c3.59-14.22-3.45-22.63-18.77-22.63-10.62,0-18.21,5.24-20.69,14.21l-5.25,19.73c-2.62,9.8.41,16.7,8.56,20.7l6.07,3c3.86,2.21,5.38,5.66,4,10.76l-4.69,18.22c-1.11,3.86-3.73,5.79-7.73,5.79-5.1,0-7.17-2.62-5.93-7.72l2.34-9.66h-13.8l-2.07,8.41C310.63,235.18,317,242.9,333,242.9c11.18,0,18.63-5.79,21.53-17l5.52-20.7C362.79,194.75,360.17,187.71,352.3,183.43Z" transform="translate(-73.9 -136.79)"/><path class="cls-1" d="M404.05,136.79c-10.63,0-18.22,5.24-20.7,14.21l-5.24,19.73c-2.62,9.8.41,16.7,8.55,20.7l6.07,3c3.87,2.21,5.39,5.66,4,10.76L392,223.45c-1.1,3.86-3.72,5.79-7.72,5.79-5.11,0-7.18-2.62-5.94-7.72l2.35-9.66h-13.8l-2.07,8.41c-3.59,14.91,2.76,22.63,18.77,22.63,11.17,0,18.62-5.79,21.52-17l5.52-20.7c2.76-10.48.14-17.52-7.72-21.8l-6.21-3.17c-4.28-2.21-5.94-5.52-4.7-10.08l3.73-13.94a7.68,7.68,0,0,1,7.59-5.79c4.83,0,7,2.9,5.93,7.73l-1.65,6.76h13.8l1.38-5.52C426.4,145.2,419.37,136.79,404.05,136.79Z" transform="translate(-73.9 -136.79)"/><path d="M205.4,260.1c-9.92,0-16.29,4.28-18.49,12.61L170.5,334.19c-3.55,13.23,2.2,20.08,16.77,20.08,9.92,0,16.17-4.28,18.38-12.61l10.16-37.84H197.07L194,315.45h6.37L194.5,337a6.26,6.26,0,0,1-6.61,5.14c-4.66,0-6.62-2.33-5.39-6.86l15.43-57.92c.86-3.43,3.31-5.15,6.86-5.15,4.53,0,6.24,2.33,5.26,6.86l-1.34,6h12.12l1.1-4.9C224.87,267,219.24,260.1,205.4,260.1Z" transform="translate(-73.9 -136.79)"/><path d="M273.25,261.32H261l-9.8,36a6.21,6.21,0,0,1-6.49,5.14c-4.9,0-6.73-2.33-5.51-6.86l9.31-34.29H236.38l-9.18,33.19c-2.82,9.92-.12,16.29,7.59,18.86l-10.53,39.68h12.25l10.28-38.58c8.09-.73,13.48-4.9,15.44-12.49Z" transform="translate(-73.9 -136.79)"/><path d="M321.25,260.1c-6.12,0-10.77,3.3-13.83,9.79-.49-6.49-4.41-9.79-11.64-9.79-7.71,0-13,4.28-15.18,12.61l-21.43,80.34h12.24l20.33-76.91c.61-2.57,2.2-3.92,4.65-3.92,3.07,0,4.05,2.33,2.82,6.86l-19.72,74h12.25l20.58-76.91c.61-2.57,2.2-3.92,4.65-3.92,2.94,0,3.79,2.33,2.57,6.86l-19.72,74h12.25l19.35-72.87C335,267,331.42,260.1,321.25,260.1Z" transform="translate(-73.9 -136.79)"/><rect x="13.71" y="119.16" width="22.59" height="98.74"/><polygon points="91.42 155.97 62.34 155.97 62.34 119.16 39.75 119.16 39.75 217.9 62.34 217.9 62.34 181.08 84.53 181.08 91.42 155.97"/><circle cx="12.85" cy="165.67" r="12.85"/><rect x="317.02" y="119.16" width="22.59" height="98.74"/><polygon points="290.98 119.16 290.98 155.97 267.57 155.97 260.68 181.08 290.98 181.08 290.98 217.9 313.57 217.9 313.57 119.16 290.98 119.16"/><path d="M426.1,302.46a12.86,12.86,0,1,1-12.85-12.85A12.85,12.85,0,0,1,426.1,302.46Z" transform="translate(-73.9 -136.79)"/></svg>