<svg id="Layer_1" data-name="Layer 1" xmlns="http://www.w3.org/2000/svg" viewBox="0 0 51.51 37.79"><title>icons8-pulmões-60</title><path d="M683.12,385.34c-5.45,2.1-6.45,6.23-6.21,11.68.35,8.14-5.59,9.13-11.9,8.84s-9.06-3.2-7.49-10c2.11-9.16,5.05-17.82,11.24-25.06,1.16-1.36,2.69-3.22,4.51-2.37,1.12.52,1.79,2.65,2.09,4.17.73,3.82,1.13,7.7,1.7,11.86,4.63-2.85,3.94-7,4-10.91,0-1.51,0-3.32,2-3.3s2,1.81,2,3.33c.06,3.88-.68,8.05,3.89,10.77.72-4.62,1.29-9,2.11-13.31.62-3.31,2.74-3.75,4.89-1.52a43.69,43.69,0,0,1,12.66,31.9c-.11,5.2-6.52,4.52-10.62,4.43-5.2-.12-9.34-2.53-8.82-8.42C689.64,391.77,688.41,387.55,683.12,385.34Z" transform="translate(-657.08 -368.11)"/></svg>