<?xml version="1.0" encoding="utf-8"?>
<!-- Generator: Adobe Illustrator 24.0.1, SVG Export Plug-In . SVG Version: 6.00 Build 0)  -->
<svg version="1.1" id="Layer_1" xmlns="http://www.w3.org/2000/svg" xmlns:xlink="http://www.w3.org/1999/xlink" x="0px" y="0px"
	 viewBox="0 0 1024 1024" style="enable-background:new 0 0 1024 1024;" xml:space="preserve">
<g>
	<g>
		<path d="M988.755,1011.348H35.245C15.787,1011.348,0,995.573,0,976.104s15.787-35.245,35.245-35.245h953.511
			c19.458,0,35.245,15.775,35.245,35.245S1008.213,1011.348,988.755,1011.348z"/>
	</g>
	<g>
		<path d="M115.761,976.253l-70.489-0.298l2.386-573.529c0-39.191,18.724-77.499,50.068-102.327L431.701,40.078
			c46.97-36.518,112.916-36.564,160.391-0.161l333.907,259.493c31.963,24.804,50.32,62.412,50.32,103.164v573.529h-70.489V402.575
			c0-18.804-8.398-36.117-23.06-47.475L549,95.721c-21.867-16.785-52.362-16.842-74-0.011L141.277,355.536
			c-14.41,11.393-23.129,29.049-23.129,47.039L115.761,976.253z"/>
	</g>
	<g>
		<path d="M750.372,1011.348H273.605c-19.458,0-35.245-15.775-35.245-35.245V523.189c0-58.867,47.888-106.755,106.767-106.755
			H678.85c58.879,0,106.767,47.888,106.767,106.755v452.915C785.617,995.573,769.83,1011.348,750.372,1011.348z M308.85,940.859
			h406.277v-417.67c0-19.997-16.269-36.266-36.277-36.266H345.127c-20.009,0-36.277,16.269-36.277,36.266V940.859z"/>
	</g>
	<g>
		<path d="M416.626,808.726c-19.458,0-35.245-15.775-35.245-35.245v-71.51c0-19.469,15.787-35.245,35.245-35.245
			c19.458,0,35.245,15.775,35.245,35.245v71.51C451.871,792.951,436.084,808.726,416.626,808.726z"/>
	</g>
	<g>
		<path d="M583.51,320.062H440.49c-19.458,0-35.245-15.775-35.245-35.245c0-19.469,15.787-35.245,35.245-35.245H583.51
			c19.458,0,35.245,15.775,35.245,35.245C618.755,304.286,602.968,320.062,583.51,320.062z"/>
	</g>
</g>
</svg>
