<?xml version="1.0" encoding="utf-8"?>
<!-- Generator: Adobe Illustrator 24.0.1, SVG Export Plug-In . SVG Version: 6.00 Build 0)  -->
<svg version="1.1" id="Layer_1" xmlns="http://www.w3.org/2000/svg" xmlns:xlink="http://www.w3.org/1999/xlink" x="0px" y="0px"
	 viewBox="0 0 1024 1024" style="enable-background:new 0 0 1024 1024;" xml:space="preserve">
<path d="M404.785,260.686c43.748-1.404,78.857-36.593,80.164-80.343c0-0.06,0-0.12,0-0.179
	c-0.099-44.372-36.151-80.263-80.523-80.163c-44.372,0.099-80.263,36.15-80.164,80.522
	C324.362,224.895,360.413,260.786,404.785,260.686z"/>
<path d="M777.743,439.526v174.886c-26.601,3.774-40.261,5.393-55,7.908c-37.565,6.471-61.29,25.882-52.304,66.863
	c7.19,33.431,52.843,50.866,88.791,35.948c31.97-11.685,52.495-42.948,50.507-76.928c-0.18-35.948,0.18-71.896,1.438-107.843
	c1.617-7.519,4.537-14.696,8.627-21.209l73.872,9.706V464.69L777.743,439.526z"/>
<path d="M545.521,710.932c-11.911-16.888-19.67-36.348-22.647-56.797c-2.517-84.837-1.078-170.033-1.078-262.419l85.017,50.686
	c41.129-12.216,81.417-27.107,120.605-44.575c15.417-11.75,23.592-30.689,21.569-49.967c-10.076-16.838-28.019-27.401-47.631-28.039
	c-28.579,2.336-56.258,16.716-88.791,27.32c-48.171-58.594-105.328-66.863-181.357-52.663
	c-81.241,15.817-122.222,65.065-158.17,123.66c-34.152-6.219-68.818-9.168-103.53-8.807c-18.495,6.174-33.009,20.688-39.183,39.183
	c0.858,16.876,10.561,32.046,25.523,39.902c59.494,9.347,119.347,43.497,193.039-3.774c-9.706,54.102-8.987,100.654-26.961,139.299
	c-32.861,67.878-36.243,146.31-9.347,216.765c11.683,33.611,4.673,85.556,62.01,83.219c35.948-1.438,41.34-30.556,23.366-104.428
	c-12.761-49.967-25.703-99.216,19.592-136.602c33.971,51.046,66.683,103.35,102.631,152.598
	c21.029,28.938,42.418,78.007,89.869,42.059c42.598-31.994,3.954-63.628-14.02-92.386
	C580.391,759.642,560.798,736.635,545.521,710.932z"/>
</svg>
