<?xml version="1.0" encoding="utf-8"?>
<!-- Generator: Adobe Illustrator 24.0.1, SVG Export Plug-In . SVG Version: 6.00 Build 0)  -->
<svg version="1.1" id="Layer_1" xmlns="http://www.w3.org/2000/svg" xmlns:xlink="http://www.w3.org/1999/xlink" x="0px" y="0px"
	 viewBox="0 0 1024 1024" style="enable-background:new 0 0 1024 1024;" xml:space="preserve">
<path d="M924,512c0,22.755-18.441,41.196-41.196,41.196v82.405c0,22.755-18.441,41.196-41.196,41.196
	c-22.755,0-41.209-18.441-41.209-41.196v41.196c0,22.755-18.441,41.209-41.196,41.209s-41.196-18.454-41.196-41.209V553.196H305.994
	v123.601c0,22.755-18.441,41.209-41.196,41.209s-41.196-18.454-41.196-41.209v-41.196c0,22.755-18.454,41.196-41.209,41.196
	c-22.755,0-41.196-18.441-41.196-41.196v-82.405C118.441,553.196,100,534.755,100,512c0-22.755,18.441-41.196,41.196-41.196v-82.405
	c0-22.755,18.441-41.196,41.196-41.196c22.755,0,41.209,18.441,41.209,41.196v-41.196c0-22.755,18.441-41.209,41.196-41.209
	s41.196,18.454,41.196,41.209v123.601h412.012V347.202c0-22.755,18.441-41.209,41.196-41.209s41.196,18.454,41.196,41.209v41.196
	c0-22.755,18.454-41.196,41.209-41.196c22.755,0,41.196,18.441,41.196,41.196v82.405C905.559,470.804,924,489.245,924,512z"/>
</svg>
