<?xml version="1.0" encoding="utf-8"?>
<!-- Generator: Adobe Illustrator 24.0.1, SVG Export Plug-In . SVG Version: 6.00 Build 0)  -->
<svg version="1.1" id="Layer_1" xmlns="http://www.w3.org/2000/svg" xmlns:xlink="http://www.w3.org/1999/xlink" x="0px" y="0px"
	 viewBox="0 0 1024 1024" style="enable-background:new 0 0 1024 1024;" xml:space="preserve">
<path d="M902.655,407.753c-47.36-24.71-51.021-65.549-47.017-111.079c1.201-19.047,1.201-38.151,0-57.198
	c1.208-19.991-14.02-37.177-34.011-38.385c-2.125-0.128-4.256-0.069-6.371,0.176c-14.986,0-30.315-2.86-44.615,5.377
	c-27.913,16.015-11.44,47.474-22.307,73.9C680.84,225.635,616.435,175.3,554.776,121.877c-30.086-26.082-52.622-27.455-83.853-0.801
	c-83.967,71.726-170.679,140.479-256.248,210.375c-32.489,26.54-65.434,52.622-97.466,79.505
	c-11.44,10.067-21.507,22.879-15.329,39.924c4.941,15.056,19.164,25.096,35.005,24.71c9.152,0,18.303,0.801,31.344,1.487
	c0,121.26,0,235.542,0,349.823c0,73.9,21.278,95.292,94.606,95.406c165.951,0,331.977,0,498.081,0
	c73.214,0,94.72-21.735,94.949-95.178c0-115.998,0-232.11,0-347.879c26.083-6.521,55.711,2.631,66.35-28.256
	C927.953,433.687,919.442,414.873,902.655,407.753z M715.617,597.88c-37.636,26.311-41.983,73.9-71.727,105.016
	c-18.303,19.104-38.437,10.296-58.685,13.613c-9.723-33.175,0-65.892-6.635-100.211h-133.5v95.979
	c-36.378,8.923-54.338-1.945-78.133-28.256c-23.795-26.311-19.448-71.612-59.028-87.399c-4.462-1.716-5.834-32.488,0-36.836
	c37.751-26.197,41.526-74.243,71.841-104.787c18.075-18.303,37.865-12.584,58.914-12.24c10.067,31.573-0.801,64.291,7.436,100.325
	h132.356v-97.809c36.263-8.465,54.338,1.83,78.133,28.37s19.333,71.726,59.143,87.399C720.65,562.76,721.908,593.419,715.617,597.88
	L715.617,597.88z"/>
</svg>
