<?xml version="1.0" encoding="utf-8"?>
<!-- Generator: Adobe Illustrator 24.0.1, SVG Export Plug-In . SVG Version: 6.00 Build 0)  -->
<svg version="1.1" id="Layer_1" xmlns="http://www.w3.org/2000/svg" xmlns:xlink="http://www.w3.org/1999/xlink" x="0px" y="0px"
	 viewBox="0 0 1024 1024" style="enable-background:new 0 0 1024 1024;" xml:space="preserve">
<path d="M924,644.701c0.013,16.617-13.447,30.097-30.064,30.11c-16.617,0.013-30.097-13.447-30.11-30.064
	c-0.013-16.617,13.447-30.097,30.064-30.11c0.016,0,0.031,0,0.047,0C910.54,614.637,924,628.097,924,644.701L924,644.701z"/>
<polygon points="780.771,535.887 780.771,622.007 726.001,622.007 709.882,680.754 780.771,680.754 780.771,766.897 
	833.622,766.897 833.622,535.887 "/>
<rect x="841.694" y="535.887" width="52.851" height="231.01"/>
<circle cx="130.064" cy="644.701" r="30.064"/>
<polygon points="313.884,622.007 245.849,622.007 245.849,535.887 192.998,535.887 192.998,766.897 245.849,766.897 
	245.849,680.754 297.765,680.754 "/>
<rect x="132.076" y="535.887" width="52.851" height="231.01"/>
<path d="M678.695,545.596c-14.318,0-25.197,7.721-32.356,22.905c-1.146-15.184-10.318-22.905-27.233-22.905
	c-18.038,0-30.415,10.013-35.515,29.502L533.454,763.06h28.636l47.564-179.937c1.427-6.013,5.147-9.171,10.879-9.171
	c7.182,0,9.475,5.451,6.598,16.049L580.994,763.13h28.66l48.149-179.937c1.427-6.013,5.147-9.171,10.879-9.171
	c6.878,0,8.867,5.451,6.013,16.049l-46.137,173.129h28.66l45.271-170.485C710.864,561.74,702.489,545.596,678.695,545.596z"/>
<path d="M566.395,548.451h-28.66l-22.928,84.225c-1.261,7.29-7.799,12.467-15.184,12.026c-11.464,0-15.745-5.451-12.891-16.049
	l21.781-80.224h-28.379l-21.477,77.651c-6.598,23.209-0.281,38.112,17.757,44.125l-24.636,92.835h28.66l24.051-90.261
	c18.927-1.708,31.538-11.464,36.123-29.221L566.395,548.451z"/>
<path d="M407.655,545.596c-23.209,0-38.112,10.013-43.259,29.502l-38.392,143.837c-8.306,30.953,5.147,46.979,39.235,46.979
	c23.209,0,37.831-10.013,43.001-29.502l23.77-88.53h-43.844l-7.183,27.209h14.903l-13.733,50.418
	c-1.321,7.374-7.993,12.562-15.465,12.025c-10.902,0-15.488-5.451-12.61-16.049l36.1-135.508c2.012-8.025,7.744-12.049,16.05-12.049
	c10.598,0,14.599,5.451,12.306,16.049l-3.135,14.037h28.356l2.574-11.464C453.206,561.74,440.035,545.596,407.655,545.596z"/>
<path d="M872.412,257.103c-24.87,0-42.627,12.259-48.429,33.245l-12.259,46.16c-6.13,22.928,0.959,39.071,20.003,48.429
	l14.201,7.019c9.054,5.17,12.61,13.242,9.358,25.174l-11.066,42.721c-2.574,9.031-8.703,13.546-18.062,13.546
	c-11.955,0-16.798-6.13-13.897-18.062l5.498-22.6h-32.286l-4.843,19.676c-8.399,34.883,6.457,52.945,43.914,52.945
	c26.133,0,43.563-13.546,50.348-39.773l12.914-48.429c6.457-24.519,0.328-40.989-18.062-51.003l-14.529-7.416
	c-10.013-5.17-13.897-12.914-10.996-23.583l8.727-32.614c2.053-8.093,9.41-13.705,17.757-13.546c11.3,0,16.377,6.785,13.874,18.085
	l-3.86,15.816h32.286l3.229-12.914C924.702,276.779,908.255,257.103,872.412,257.103z"/>
<path d="M751.339,366.221l-14.529-7.416c-10.013-5.17-13.874-12.914-10.973-23.583l8.727-32.614
	c2.044-8.089,9.392-13.702,17.734-13.546c11.3,0,16.377,6.785,13.897,18.085l-3.86,15.816h32.286l3.229-12.914
	c8.399-33.269-8.072-52.945-43.914-52.945c-24.846,0-42.604,12.259-48.406,33.245l-12.283,46.16
	c-6.13,22.928,0.959,39.071,20.027,48.429l14.201,7.019c9.031,5.17,12.587,13.242,9.358,25.174l-10.973,42.627
	c-2.597,9.031-8.727,13.546-18.085,13.546c-11.932,0-16.775-6.13-13.874-18.062l5.475-22.6h-32.286l-4.843,19.676
	c-8.399,34.977,6.504,53.038,43.937,53.038c26.156,0,43.586-13.546,50.371-39.773l12.914-48.429
	C775.881,392.705,769.752,376.234,751.339,366.221z"/>
<path d="M624.136,310.047c3.229-11.955,10.318-17.757,21.618-17.757h41.715l8.727-31.959h-51.401
	c-26.461,0-42.3,10.318-48.102,31.304l-18.085,68.129h-20.027l-8.072,30.672h19.699l-15.488,58.115
	c-9.686,35.842,3.86,53.576,40.03,53.576h36.802l8.072-30.649h-38.416c-13.242,0-18.085-7.019-14.529-21.056l16.143-60.057h47.447
	l8.095-30.672h-47.47L624.136,310.047z"/>
<path d="M514.34,257.103c-25.735,0-42.627,11.3-48.429,33.245l-56.852,211.779h32.286l53.6-199.519
	c2.246-9.031,7.705-13.546,16.377-13.546c13.897,0,18.717,6.13,15.511,18.085l-52.266,194.981h32.286l51.354-192.079
	C567.635,275.164,552.451,257.103,514.34,257.103z"/>
<polygon points="451.732,291.003 459.804,260.331 362.29,260.331 354.219,291.003 386.832,291.003 330.332,502.15 362.618,502.15 
	419.119,291.003 "/>
<polygon points="310.001,260.331 245.428,502.15 277.714,502.15 342.287,260.331 "/>
<path d="M198.917,372.351l16.798-62.303c3.229-11.955,10.645-17.757,21.945-17.757h41.645l8.727-31.959h-51.33
	c-26.484,0-42.3,10.318-48.125,31.304l-21.618,80.716h-19.933l-8.072,30.672h19.699l-26.554,99.105h32.263l26.484-99.105h48.102
	l8.072-30.672H198.917z"/>
<title>logo</title>
</svg>
