<?xml version="1.0" encoding="utf-8"?>
<!-- Generator: Adobe Illustrator 24.0.1, SVG Export Plug-In . SVG Version: 6.00 Build 0)  -->
<svg version="1.1" id="Layer_1" xmlns="http://www.w3.org/2000/svg" xmlns:xlink="http://www.w3.org/1999/xlink" x="0px" y="0px"
	 viewBox="0 0 1024 1024" style="enable-background:new 0 0 1024 1024;" xml:space="preserve">
<path d="M1024,388.012v143.537c-34.733,35.779-64.863,78.674-104.619,104.619c-39.987,24.857-72.18,60.457-92.901,102.736
	C742.785,904.2,620.59,962.996,439.181,932.866c-33.269-5.44-71.978-16.739-100.224-5.649
	c-68.002,27.201-113.825-3.557-154.417-46.66c-39.164-37.917-72.011-81.853-97.296-130.146
	C22.841,606.291-6.623,449.002,1.247,291.343c4.394-98.97,62.771-163.833,150.861-201.914
	c55.239-24.062,159.648,29.712,188.314,91.437c17.577,38.709-15.693,102.317-75.744,128.472
	c-27.41,12.135-62.771,8.579-94.576,12.135c23.644,91.227,100.643,140.398,158.602,218.653
	c59.215-101.689,150.232-113.825,241.251-115.29c6.486-18.622,11.298-31.386,15.693-44.358
	c32.85-99.597,104.619-149.186,206.308-155.882s169.901,39.755,212.377,129.518C1010.215,365.792,1016.782,377.111,1024,388.012z"/>
<title>icons8-flexão-de-biceps-50</title>
</svg>
