<?xml version="1.0" encoding="utf-8"?>
<!-- Generator: Adobe Illustrator 24.0.1, SVG Export Plug-In . SVG Version: 6.00 Build 0)  -->
<svg version="1.1" id="Layer_1" xmlns="http://www.w3.org/2000/svg" xmlns:xlink="http://www.w3.org/1999/xlink" x="0px" y="0px"
	 viewBox="0 0 1024 1024" style="enable-background:new 0 0 1024 1024;" xml:space="preserve">
<path style="fill:#010101;" d="M748.625,787.567c-112.783,0-207.056-90.456-272.514-261.635
	c-50.381-131.104-101.525-212.4-201.331-212.4c-109.822-0.169-198.988,88.721-199.158,198.543
	c-0.17,109.822,88.721,198.988,198.543,199.157c52.92,0.082,103.69-20.934,141.07-58.395c14.914-14.914,39.093-14.914,54.007,0
	c14.914,14.913,14.914,39.092,0,54.006c-107.503,107.28-281.62,107.099-388.899-0.404c-107.281-107.503-107.099-281.62,0.404-388.9
	c51.502-51.395,121.274-80.285,194.034-80.342c171.752,0,237.59,170.034,272.514,261.445
	c30.533,79.388,96.945,212.591,201.331,212.591c109.822,0.1,198.931-88.848,199.031-198.67
	c0.099-109.822-88.848-198.931-198.671-199.031c-49.531-0.045-97.295,18.397-133.945,51.716
	c-15.809,14.176-40.117,12.851-54.293-2.958c-14.175-15.809-12.851-40.117,2.959-54.293l0,0
	c112.457-102.232,286.497-93.944,388.729,18.513s93.943,286.497-18.513,388.729c-50.653,46.047-116.65,71.563-185.106,71.563
	L748.625,787.567z"/>
<title>icons8-infinitamente-grande-60</title>
</svg>
