<?xml version="1.0" encoding="utf-8"?>
<!-- Generator: Adobe Illustrator 24.0.1, SVG Export Plug-In . SVG Version: 6.00 Build 0)  -->
<svg version="1.1" id="Layer_1" xmlns="http://www.w3.org/2000/svg" xmlns:xlink="http://www.w3.org/1999/xlink" x="0px" y="0px"
	 viewBox="0 0 1024 1024" style="enable-background:new 0 0 1024 1024;" xml:space="preserve">
<path d="M512,0C229.248,0,0,229.248,0,512c0,96.052,26.98,185.603,73,262.417L4.583,1024L259.5,957.083
	C334.052,999.469,420.117,1024,512,1024c282.752,0,512-229.248,512-512S794.752,0,512,0z M336.75,273.167
	c8.32,0,16.869-0.051,24.25,0.333c9.131,0.213,19.069,0.882,28.583,21.917c11.307,25.003,35.926,87.726,39.083,94.083
	s5.395,13.847,1,22.167c-4.181,8.533-6.356,13.698-12.5,21.25c-6.357,7.339-13.323,16.453-19.083,22
	c-6.357,6.357-12.922,13.328-5.583,26s32.825,54.214,70.5,87.75c48.427,43.264,89.285,56.559,102,62.917
	c12.715,6.357,20.078,5.367,27.417-3.167c7.552-8.32,31.717-36.869,40.25-49.583c8.32-12.715,16.813-10.515,28.333-6.333
	c11.691,4.181,74.035,34.893,86.75,41.25s21.05,9.504,24.25,14.667c3.285,5.333,3.289,30.723-7.25,60.333
	c-10.539,29.568-62.289,58.161-85.5,60.167c-23.424,2.176-45.285,10.529-152.25-31.583
	c-129.024-50.816-210.393-182.967-216.75-191.5c-6.357-8.32-51.667-68.707-51.667-131c0-62.507,32.773-93.119,44.25-105.833
	C314.524,276.285,328.217,273.167,336.75,273.167z"/>
</svg>
