<?xml version="1.0" encoding="utf-8"?>
<!-- Generator: Adobe Illustrator 24.0.1, SVG Export Plug-In . SVG Version: 6.00 Build 0)  -->
<svg version="1.1" id="Layer_1" xmlns="http://www.w3.org/2000/svg" xmlns:xlink="http://www.w3.org/1999/xlink" x="0px" y="0px"
	 viewBox="0 0 1024 1024" style="enable-background:new 0 0 1024 1024;" xml:space="preserve">
<path d="M893.313,804.055V221.049c-62.729,62.729-119.771,115.213-171.042,172.882c-35.63,40.147-55.829,20.115-80.67-8.364
	c-21.244-24.506-56.373-40.523-13.842-80.628c92.965-87.612,181.622-179.824,271.827-270.238
	c23.419-23.461,48.176-44.37,83.932-28.145c33.832,15.348,40.565,44.914,40.481,79.457c-0.585,282.282-0.585,564.564,0,846.846
	c0,37.136-4.809,70.759-42.823,86.023c-39.812,16.017-64.486-11.96-89.201-36.718C671.725,761.775,451.476,541.372,231.226,320.956
	c-29.859-29.901-58.798-60.68-97.23-100.367v579.703c59.426-59.509,117.095-111.533,167.696-169.62
	c40.816-46.838,59.216-11.04,86.901,12.169c33.121,27.726,37.93,48.134,3.053,81.214c-90.79,86.065-177.733,176.144-266.223,264.676
	c-23.294,23.294-48.009,45.04-83.848,29.525c-33.832-14.679-41.82-43.869-41.569-78.788c0.669-284.958,0.669-569.903,0-854.834
	c0-35.212,8.364-64.193,41.82-78.788c39.938-17.397,64.611,10.371,89.285,35.087L893.313,804.055z"/>
<title>icons8-transitions-browser-96</title>
</svg>
