<?xml version="1.0" encoding="utf-8"?>
<!-- Generator: Adobe Illustrator 24.0.1, SVG Export Plug-In . SVG Version: 6.00 Build 0)  -->
<svg version="1.1" id="Layer_1" xmlns="http://www.w3.org/2000/svg" xmlns:xlink="http://www.w3.org/1999/xlink" x="0px" y="0px"
	 viewBox="0 0 1024 1024" style="enable-background:new 0 0 1024 1024;" xml:space="preserve">
<path d="M923.217,135.17c0-31.852-3.415-34.949-36.754-34.984c-177.594-0.248-355.177-0.248-532.748,0
	c-37.533,0-38.931,1.77-39.161,41.603c-0.265,56.626-0.814,113.43,0.301,170.109c0.442,22.456-3.291,36.542-26.402,49.017
	c-50.875,27.446-70.128,79.047-57.653,136.505c3.84,17.696,5.61,34.666-2.106,52.326c-8.653,19.819-2.991,41.55,11.591,53.459
	c23.659,19.341,30.083,47.212,43.178,71.332c17.218,31.658,5.468,61.386-26.119,77.33c-27.835,13.962-56.839,25.8-84.249,40.506
	c-32.401,17.501-56.29,42.027-66.501,79.631c-12.281,45.106-8.689,51.778,38.842,51.813c159.663,0.13,319.337,0.13,479.024,0
	c7.468,0,14.971,0.513,22.385-0.177c15.413-1.433,23.27-10.812,20.846-26.544c-3.858-25.216-11.679-48.469-30.295-67.863
	c-21.235-22.067-46.168-37.161-74.074-48.274c-26.137-10.423-52.326-20.704-78.428-31.233
	c-15.926-6.424-28.844-15.767-32.135-37.462c15.926-5.875,30.914-3.061,45.62-3.097c128.33-0.248,256.588,0,385.006-0.23
	c37.161,0,39.798-2.336,39.851-36.436C923.483,493.362,923.477,314.251,923.217,135.17z M731.024,215.916
	c6.37-7.609,14.157-10.83,22.863-3.875c7.733,6.176,14.864,13.095,22.084,19.465c19.288-12.387,25.323-34.047,40.559-48.062
	c7.751-7.078,14.564-16.085,26.172-7.68c10.334,7.503,10.476,16.669,2.884,26.65c-16.846,22.226-33.25,44.788-50.344,66.837
	c-8.972,11.591-19.253,12.122-29.764,1.186c-11.219-11.697-23.005-23.004-34.011-34.79
	C725.733,229.648,725.574,222.428,731.024,215.916z M731.802,376.222c11.502-12.759,20.651-5.309,29.623,3.539
	c4.176,4.141,8.512,8.14,14.033,13.413c20.262-14.068,26.65-35.391,41.85-49.424c7.928-7.326,15.077-15.024,26.26-6.034
	c10.387,8.335,8.512,17.377,1.363,26.862c-15.926,21.093-30.826,43.001-47.779,63.28c-13.343,16.068-17.961,15.785-32.472,2.814
	c-9.892-8.848-18.952-18.598-28.313-28.048c-7.415-7.645-14.245-15.661-4.636-26.402L731.802,376.222z M470.083,583.156
	c-12.759,5.716-17.59,15.926-20.226,27.287c-4.194,17.89-14.157,31.976-23.925,47.035c-25.995,40.045-11.148,95.893,31.64,117.907
	c24.774,12.812,51.76,21.642,77.667,32.489c34.294,14.351,68.872,28.313,87.983,63.705c2.194,4.052,3.645,7.786,1.097,13.997
	H143.543c3.274-32.861,24.438-48.593,48.009-61.546c22.067-12.122,45.177-22.314,67.562-33.887
	c13.113-6.777,25.889-14.28,38.471-21.996c19.465-11.927,27.765-29.251,27.128-52.344c-0.761-28.048,1.433-55.175-19.465-79.525
	c-14.511-16.899-11.113-46.274-38.931-56.184c-8.246-2.938-7.999-19.288-3.238-24.208c18.439-19.094,7.875-39.055,3.734-57.989
	c-13.077-59.652,14.44-105.838,73.437-120.596c8.6-2.141,17.023-5.167,25.694-6.831c8.671-1.663,18.775-2.283,24.774,5.946
	c9.485,13.166,21.96,16.846,37.515,20.014c35.073,7.078,56.892,43.815,51.477,80.763c-1.504,10.264-1.451,21.111-4.99,30.631
	c-6.017,16.174-8.335,30.684,3.026,45.779C486.752,565.619,482.682,577.511,470.083,583.156z M448.104,261.217
	c-8.936,0-18.05,0.743-26.721-0.796c-9.237-1.646-16.899-7.432-16.068-18.014c0.796-10.122,8.229-15.183,17.908-16.528
	c4.438-0.449,8.902-0.597,13.36-0.442c74.428,0,148.851,0,223.267,0c4.459,0,9.113-0.442,13.343,0.655
	c9.149,2.407,16.882,7.574,16.068,18.156c-0.796,10.122-8.299,15.926-17.926,16.386c-20.81,0.849-41.656,0.513-62.484,0.584
	c-20.828,0.071-41.673,0-62.519,0C513.596,261.241,480.853,261.241,448.104,261.217z M689.262,404.482
	c0,10.37-7.503,16.599-16.917,17.165c-17.696,1.062-35.622,0.319-53.441,0.319s-35.675,0.743-53.423-0.301
	c-9.432-0.566-16.917-6.813-16.917-17.165c-0.334-9.132,6.797-16.805,15.929-17.14c0.317-0.012,0.635-0.014,0.953-0.007
	c35.616-0.779,71.249-0.779,106.9,0c9.155-0.191,16.732,7.076,16.923,16.232C689.274,403.883,689.272,404.183,689.262,404.482z
	 M674.451,582.448c-19.164,1.646-38.559,0.513-57.865,0.513c-17.802,0-35.675,0.814-53.406-0.407
	c-7.273-0.513-13.608-6.831-14.634-14.776c-1.38-10.617,6.176-18.651,14.794-18.934c37.073-1.186,74.216-0.92,111.324,0
	c7.078,0.159,13.608,6.813,14.617,14.758c1.425,8.897-4.632,17.266-13.529,18.691C675.319,582.362,674.886,582.414,674.451,582.448z
	 M847.869,521.362c-17.324,25.535-34.33,51.318-55.954,73.579c-7.326,7.521-15.572,7.963-23.217,0.531
	c-12.67-12.387-25.234-24.774-37.391-37.657c-5.716-6.07-5.627-13.325,0-19.784c6.53-7.591,14.316-10.458,22.916-3.539
	c7.627,6.193,14.723,13.042,21.907,19.465c20.244-13.997,26.951-36.984,43.673-51.672c7.184-6.3,14.28-11.024,23.217-3.999
	c7.662,6.176,11.06,13.874,4.831,23.075H847.869z"/>
</svg>
