<?xml version="1.0" encoding="utf-8"?>
<!-- Generator: Adobe Illustrator 24.0.1, SVG Export Plug-In . SVG Version: 6.00 Build 0)  -->
<svg version="1.1" id="Layer_1" xmlns="http://www.w3.org/2000/svg" xmlns:xlink="http://www.w3.org/1999/xlink" x="0px" y="0px"
	 viewBox="0 0 1024 1024" style="enable-background:new 0 0 1024 1024;" xml:space="preserve">
<g>
	<path d="M789.44,288.596c-3.501-0.499-7.002-0.499-10.502,0c-77.527-2.5-139.048-66.021-139.048-144.047
		C639.89,65.022,704.412,0,784.439,0c79.527,0,144.549,64.522,144.549,144.549C928.488,222.575,866.967,286.096,789.44,288.596z"/>
	<path d="M952.628,635.234c-56.02,37.512-134.546,51.516-207.071,42.012c19.007-41.013,29.01-86.529,29.51-134.543
		c0-50.017-11.002-97.533-32.009-139.048c74.023-10.003,152.552,4.003,209.069,41.515
		C1031.153,497.188,1031.153,582.715,952.628,635.234z"/>
	<path d="M234.811,288.596c3.501-0.499,7.002-0.499,10.503,0c77.527-2.5,139.048-66.021,139.048-144.047
		C384.361,64.522,319.839,0,239.812,0C160.286,0,95.764,64.522,95.764,144.549C95.764,222.575,157.285,286.096,234.811,288.596z"/>
	<path d="M240.366,542.713c0,48.514,10.505,94.531,29.512,136.044c-70.525,7.503-144.049-7.501-198.068-43.013
		c-79.026-52.517-79.026-138.047,0-190.563c53.518-36.012,129.043-50.519,200.068-42.514
		C251.371,444.678,240.366,492.196,240.366,542.713z"/>
	<path d="M518.949,693.732c-4.003-0.499-8.502-0.499-13.004,0c-92.032-3.001-165.556-78.526-165.556-171.556
		c0.499-95.033,77.025-172.058,172.558-172.058c95.033,0,172.058,77.025,172.058,172.058
		C684.505,615.206,611.48,690.73,518.949,693.732z"/>
	<path d="M356.387,797.299c-75.527,50.517-75.527,133.544,0,183.562c86.029,57.518,227.077,57.518,313.106,0
		c75.524-50.517,75.524-133.547,0-183.562C583.964,739.778,442.916,739.778,356.387,797.299z"/>
</g>
</svg>
