<?xml version="1.0" encoding="utf-8"?>
<!-- Generator: Adobe Illustrator 24.0.1, SVG Export Plug-In . SVG Version: 6.00 Build 0)  -->
<svg version="1.1" id="Layer_1" xmlns="http://www.w3.org/2000/svg" xmlns:xlink="http://www.w3.org/1999/xlink" x="0px" y="0px"
	 viewBox="0 0 1024 1024" style="enable-background:new 0 0 1024 1024;" xml:space="preserve">
<g>
	<path d="M309.552,660.926h213.105h191.898c32.838,0,49.257-45.21,25.997-71.711l-177.19-201.882
		c-28.392-32.347-74.569-32.347-102.96,0l-67.387,76.779L283.212,589.215C260.295,615.717,276.714,660.926,309.552,660.926z"/>
</g>
<g>
	<path d="M841.6,924H182.4c-45.433,0-82.4-36.967-82.4-82.4V182.4c0-45.433,36.967-82.4,82.4-82.4h659.2
		c45.433,0,82.4,36.967,82.4,82.4v659.2C924,887.033,887.033,924,841.6,924z M182.4,132.96c-27.263,0-49.44,22.177-49.44,49.44
		v659.2c0,27.263,22.177,49.44,49.44,49.44h659.2c27.263,0,49.44-22.177,49.44-49.44V182.4c0-27.263-22.177-49.44-49.44-49.44H182.4
		z"/>
</g>
</svg>
