<?xml version="1.0" encoding="utf-8"?>
<!-- Generator: Adobe Illustrator 24.0.1, SVG Export Plug-In . SVG Version: 6.00 Build 0)  -->
<svg version="1.1" id="Layer_1" xmlns="http://www.w3.org/2000/svg" xmlns:xlink="http://www.w3.org/1999/xlink" x="0px" y="0px"
	 viewBox="0 0 1024 1024" style="enable-background:new 0 0 1024 1024;" xml:space="preserve">
<g>
	<path d="M618.162,655.03c-9.433,0-18.866-3.6-26.067-10.801L379.771,431.904c-14.401-14.389-14.401-37.744,0-52.133
		c14.401-14.401,37.732-14.401,52.133,0l212.325,212.325c14.401,14.401,14.401,37.732,0,52.133
		C637.028,651.43,627.595,655.03,618.162,655.03z"/>
</g>
<g>
	<path d="M405.838,655.03c-9.433,0-18.866-3.6-26.067-10.801c-14.401-14.401-14.401-37.732,0-52.133l212.325-212.325
		c14.401-14.401,37.732-14.401,52.133,0c14.401,14.389,14.401,37.744,0,52.133L431.904,644.229
		C424.704,651.43,415.271,655.03,405.838,655.03z"/>
</g>
<g>
	<path d="M512,924c-227.182,0-412-184.818-412-412s184.818-412,412-412s412,184.818,412,412S739.182,924,512,924z M512,173.735
		c-186.522,0-338.265,151.743-338.265,338.265S325.478,850.265,512,850.265S850.265,698.522,850.265,512
		S698.522,173.735,512,173.735z"/>
</g>
</svg>
