<?xml version="1.0" encoding="utf-8"?>
<!-- Generator: Adobe Illustrator 24.0.1, SVG Export Plug-In . SVG Version: 6.00 Build 0)  -->
<svg version="1.1" id="Layer_1" xmlns="http://www.w3.org/2000/svg" xmlns:xlink="http://www.w3.org/1999/xlink" x="0px" y="0px"
	 viewBox="0 0 1024 1024" style="enable-background:new 0 0 1024 1024;" xml:space="preserve">
<path d="M997.474,382.451c-58.855-30.707-63.405-81.459-58.428-138.039c1.492-23.67,1.492-47.411,0-71.081
	c1.501-24.844-17.422-46.2-42.266-47.701c-2.64-0.16-5.289-0.086-7.918,0.219c-18.623,0-37.673-3.554-55.444,6.682
	c-34.688,19.903-14.216,58.997-27.722,91.837C721.82,156.129,641.783,93.577,565.158,27.187
	c-37.389-32.413-65.394-34.119-104.205-0.995c-104.347,89.136-212.106,174.575-318.444,261.437
	c-40.374,32.982-81.316,65.395-121.123,98.803c-14.216,12.51-26.727,28.432-19.05,49.614c6.14,18.71,23.815,31.187,43.502,30.707
	c11.373,0,22.746,0.995,38.952,1.848c0,150.692,0,292.712,0,434.732c0,91.837,26.442,118.421,117.568,118.563
	c206.23,0,412.554,0,618.974,0c90.984,0,117.711-27.011,117.995-118.279c0-144.153,0-288.447,0-432.315
	c32.413-8.103,69.233,3.27,82.454-35.114C1028.912,414.679,1018.336,391.298,997.474,382.451z M765.039,618.724
	c-46.771,32.697-52.173,91.837-89.136,130.505c-22.746,23.741-47.766,12.794-72.929,16.917c-12.083-41.227,0-81.886-8.246-124.534
	H428.825v119.274c-45.207,11.089-67.527-2.417-97.097-35.114c-29.57-32.697-24.168-88.994-73.355-108.612
	c-5.545-2.132-7.25-40.374,0-45.776c46.913-32.555,51.605-92.263,89.278-130.221c22.462-22.746,47.056-15.638,73.214-15.211
	c12.51,39.237-0.995,79.895,9.241,124.676h164.482V429.08c45.065-10.52,67.527,2.275,97.097,35.256s24.025,89.136,73.498,108.612
	C771.293,575.081,772.857,613.18,765.039,618.724L765.039,618.724z"/>
</svg>
