<?xml version="1.0" encoding="utf-8"?>
<!-- Generator: Adobe Illustrator 24.0.1, SVG Export Plug-In . SVG Version: 6.00 Build 0)  -->
<svg version="1.1" id="Layer_1" xmlns="http://www.w3.org/2000/svg" xmlns:xlink="http://www.w3.org/1999/xlink" x="0px" y="0px"
	 viewBox="0 0 1024 1024" style="enable-background:new 0 0 1024 1024;" xml:space="preserve">
<path d="M512,0C229.888,0,0,229.888,0,512s229.888,512,512,512s512-229.888,512-512S794.112,0,512,0z M756.736,394.24
	L466.432,684.544c-7.168,7.168-16.896,11.264-27.136,11.264c-10.24,0-19.968-4.096-27.136-11.264L267.264,539.648
	c-14.848-14.848-14.848-39.424,0-54.272c14.848-14.848,39.424-14.848,54.272,0l117.76,117.76l263.168-263.168
	c14.848-14.848,39.424-14.848,54.272,0C771.584,354.816,771.584,378.88,756.736,394.24z"/>
</svg>
