<?xml version="1.0" encoding="utf-8"?>
<!-- Generator: Adobe Illustrator 24.0.1, SVG Export Plug-In . SVG Version: 6.00 Build 0)  -->
<svg version="1.1" id="Layer_1" xmlns="http://www.w3.org/2000/svg" xmlns:xlink="http://www.w3.org/1999/xlink" x="0px" y="0px"
	 viewBox="0 0 1024 1024" style="enable-background:new 0 0 1024 1024;" xml:space="preserve">
<g>
	<path d="M735.253,332.23c-2.817-0.402-5.634-0.402-8.451,0c-62.385-2.011-111.89-53.126-111.89-115.913
		c0-63.994,51.92-116.316,116.317-116.316c63.994,0,116.317,51.92,116.317,116.316C847.143,279.103,797.637,330.218,735.253,332.23z
		"/>
	<path d="M866.568,611.165c-45.079,30.186-108.267,41.454-166.628,33.807c15.295-33.003,23.344-69.628,23.746-108.265
		c0-40.248-8.853-78.483-25.757-111.89c59.566-8.049,122.756,3.221,168.235,33.407C929.756,500.081,929.756,568.903,866.568,611.165
		z"/>
	<path d="M288.949,332.23c2.817-0.402,5.634-0.402,8.451,0c62.385-2.011,111.89-53.126,111.89-115.913
		C409.291,151.92,357.37,100,292.974,100c-63.994,0-115.914,51.92-115.914,116.316C177.06,279.103,226.565,330.218,288.949,332.23z"
		/>
	<path d="M293.42,536.714c0,39.039,8.453,76.068,23.748,109.473c-56.75,6.038-115.915-6.036-159.383-34.612
		c-63.592-42.26-63.592-111.084,0-153.344c43.065-28.978,103.84-40.652,160.992-34.21
		C302.275,457.827,293.42,496.064,293.42,536.714z"/>
	<path d="M517.592,658.237c-3.221-0.402-6.842-0.402-10.464,0c-74.057-2.415-133.221-63.189-133.221-138.049
		c0.402-76.472,61.981-138.453,138.855-138.453c76.472,0,138.453,61.981,138.453,138.453
		C650.813,595.049,592.051,655.822,517.592,658.237z"/>
	<path d="M386.78,741.577c-60.775,40.65-60.775,107.462,0,147.71c69.227,46.284,182.726,46.284,251.953,0
		c60.773-40.65,60.773-107.464,0-147.71C569.908,695.29,456.409,695.29,386.78,741.577z"/>
</g>
</svg>
