<?xml version="1.0" encoding="utf-8"?>
<!-- Generator: Adobe Illustrator 24.0.1, SVG Export Plug-In . SVG Version: 6.00 Build 0)  -->
<svg version="1.1" id="Layer_1" xmlns="http://www.w3.org/2000/svg" xmlns:xlink="http://www.w3.org/1999/xlink" x="0px" y="0px"
	 viewBox="0 0 1024 1024" style="enable-background:new 0 0 1024 1024;" xml:space="preserve">
<path d="M886.495,625.612c-10.534-21.132-24.665-40.271-41.759-56.56c-1.274-1.372-2.647-2.647-3.921-3.823
	c-24.838-22.543-54.776-38.722-87.242-47.15c-2.156-0.49-4.411-1.078-6.666-1.47c-14.728-3.361-29.789-5.038-44.896-4.999
	c-18.959-0.039-37.831,2.567-56.07,7.744l-5.293,1.568c-33.659,10.565-64.038,29.602-88.223,55.286l0,0
	c-34.014,35.982-53.86,83.056-55.874,132.53c0,2.941,0,5.882,0,8.92v1.667c0,6.568,0,13.037,1.078,19.605
	c0,2.255,0,4.509,0.784,6.666c10.273,76.52,62.501,140.858,135.274,166.643c19.978,7.132,40.946,11.101,62.148,11.763
	c2.353,0,4.705,0,7.058,0c2.352,0,4.705,0,7.057,0c27.365-0.817,54.279-7.186,79.106-18.723
	C892.4,857.89,937.761,735.7,890.374,632.357c-1.055-2.301-2.153-4.583-3.292-6.843L886.495,625.612z M736.517,750.299
	c-19.605,24.212,19.605,84.792-37.446,82.047c-45.974-2.255-16.174-54.502-28.819-80.675
	c-26.957-16.468-82.831,18.233-82.145-34.701c0.588-49.013,52.836-17.742,81.753-33.231c13.233-27.153-17.351-79.204,31.074-80.184
	c53.424-1.078,19.017,54.698,34.309,81.067c26.074,16.272,82.047-18.723,81.361,34.211
	C816.015,767.748,764.258,737.85,736.517,750.299L736.517,750.299z"/>
<path d="M114.842,804.213c0-70.088,28.525-120.571,92.634-147.626c31.52-13.148,63.795-24.408,96.653-33.721
	c53.718-15.488,89.497-41.759,69.5-112.141c-29.408-20.193-51.953-61.56-63.128-97.045c-22.84-73.225-35.387-153.311,0-228.594
	c30.094-63.814,87.242-85.282,153.311-85.086c121.159,0,192.717,97.143,175.661,216.733c-6.96,49.013-5.293,95.868-37.642,136.157
	c-6.795,10.969-14.606,21.274-23.33,30.78C442.441,597.675,425.483,638.257,448.225,804.213L114.842,804.213z"/>
</svg>
