<?xml version="1.0" encoding="utf-8"?>
<!-- Generator: Adobe Illustrator 24.0.1, SVG Export Plug-In . SVG Version: 6.00 Build 0)  -->
<svg version="1.1" id="Layer_1" xmlns="http://www.w3.org/2000/svg" xmlns:xlink="http://www.w3.org/1999/xlink" x="0px" y="0px"
	 viewBox="0 0 1024 1024" style="enable-background:new 0 0 1024 1024;" xml:space="preserve">
<path d="M516.221,484.943c-87.137,33.576-103.126,99.608-99.289,186.745c5.596,130.146-89.376,145.974-190.263,141.338
	S81.815,761.862,106.917,653.141c33.735-146.454,80.741-284.914,179.71-400.67c18.546-21.744,43.009-51.483,72.108-37.893
	c17.907,8.314,28.619,42.369,33.416,66.672c11.671,61.076,18.067,123.111,27.181,189.623
	c74.027-45.567,62.994-111.919,63.954-174.434c0-24.143,0-53.082,31.977-52.762c31.977,0.32,31.977,28.939,31.977,53.241
	c0.959,62.035-10.872,128.707,62.195,172.195c11.511-73.866,20.625-143.896,33.735-212.806
	c9.913-52.922,43.808-59.957,78.184-24.302c134.217,135.283,207.337,319.528,202.413,510.031
	c-1.758,83.14-104.245,72.268-169.797,70.829c-83.14-1.919-149.332-40.451-141.018-134.623
	C620.466,587.748,600.8,520.277,516.221,484.943z"/>
<title>icons8-pulmões-60</title>
</svg>
