<?xml version="1.0" encoding="utf-8"?>
<!-- Generator: Adobe Illustrator 24.0.1, SVG Export Plug-In . SVG Version: 6.00 Build 0)  -->
<svg version="1.1" id="Layer_1" xmlns="http://www.w3.org/2000/svg" xmlns:xlink="http://www.w3.org/1999/xlink" x="0px" y="0px"
	 viewBox="0 0 1024 1024" style="enable-background:new 0 0 1024 1024;" xml:space="preserve">
<g>
	<g>
		<path d="M512,696.354c-15.385,0-30.568-1.307-45.126-3.883c-81.031-11.797-154.811-58.385-201.575-127.684
			c-32.519-48.751-49.653-105.683-49.653-164.777c0-163.406,132.948-296.344,296.354-296.344s296.335,132.939,296.335,296.344
			c0,59.094-17.134,116.026-49.561,164.648c-46.856,69.437-120.636,116.016-202.477,127.951
			C542.532,695.047,527.349,696.354,512,696.354z M512,160.201c-132.23,0-239.818,107.578-239.818,239.808
			c0,47.886,13.858,93.978,40.065,133.288c37.801,56.002,97.466,93.72,163.627,103.364c24.311,4.279,48.696,4.159,71.424,0.138
			c66.971-9.772,126.635-47.5,164.528-103.631c26.115-39.181,39.973-85.273,39.973-133.159
			C751.799,267.779,644.23,160.201,512,160.201z"/>
	</g>
	<g>
		<path d="M300.119,920.335c-5.19,0-10.416-0.598-15.625-1.831c-24.587-5.843-43.469-24.753-49.322-49.349l-13.379-56.278
			c-0.883-3.561-3.699-6.561-6.975-7.288l-63.566-15.017c-23.446-5.558-42.107-23.446-48.714-46.69
			c-6.589-23.207-0.129-48.162,16.821-65.14l149.382-149.364c5.963-5.972,14.41-8.843,22.692-8.153
			c8.41,0.81,16.011,5.328,20.723,12.33c37.893,56.131,97.558,93.849,163.719,103.493c10.693,1.877,21.164,2.889,31.746,3.11
			c1.435-0.221,2.889-0.341,4.362-0.341c0.018,0,0.018,0,0.018,0c1.472,0,2.945,0.12,4.38,0.341
			c10.564-0.212,20.943-1.215,30.918-2.972c66.971-9.772,126.635-47.5,164.547-103.64c4.73-6.993,12.33-11.511,20.723-12.321
			c8.392-0.718,16.729,2.181,22.692,8.153l149.345,149.355c16.839,16.526,23.409,41.298,16.95,64.468
			c-6.533,23.4-25.231,41.408-48.806,46.984c0,0,0,0.009-0.018,0.009l-63.18,14.935c-2.834,0.69-6.368,2.862-7.196,6.782
			l-13.545,56.886c-5.852,24.596-24.753,43.497-49.34,49.331c-24.734,5.806-50.113-2.577-66.419-21.974L512.018,711.159
			L350.656,896.88C338.012,911.925,319.48,920.335,300.119,920.335z M285.856,592.208L159.35,718.705
			c-3.515,3.515-3.018,7.61-2.429,9.736c0.626,2.153,2.392,5.935,7.343,7.113l63.18,14.925
			c23.814,5.291,43.322,24.615,49.303,49.147l13.435,56.462c1.251,5.217,5.171,6.883,7.398,7.407
			c2.245,0.57,6.57,0.856,10.122-3.359l147.082-169.304C389.469,678.429,329.62,643.379,285.856,592.208z M569.254,690.805
			l146.75,168.586c3.81,4.546,8.19,4.27,10.398,3.727c2.245-0.534,6.165-2.199,7.417-7.407l13.398-56.297
			c5.171-24.072,24.072-43.175,49.174-49.266l63.327-14.971c5.006-1.187,6.773-4.997,7.38-7.159
			c0.552-2.024,1.012-5.898-2.282-9.128l-126.691-126.69C694.527,643.186,634.863,678.18,569.254,690.805z M866.233,762.68h0.184
			H866.233z"/>
	</g>
	<g>
		<path d="M585.228,548.904c-9.791,0-21.863-2.816-36.016-11.263l-36.458-21.514l-36.568,21.587
			c-32.225,18.79-53.113,9.68-62.72,2.576c-9.57-7.067-24.366-24.284-15.938-60.18l8.797-37.783l-30.366-30.375
			c-16.618-16.6-22.839-36.568-17.097-54.788c5.742-18.256,22.36-31.075,45.567-35.16l39.365-6.625l21.845-43.672
			c9.423-20.879,26.244-33.623,45.641-34.001c19.563-0.506,37.194,12.008,48.199,34.001l21.808,43.607l39.549,6.653
			c23.041,3.727,39.77,16.398,45.696,34.728c5.944,18.376-0.258,38.519-16.987,55.257l-30.384,30.384l8.815,37.81
			c8.797,37.442-8.374,54.751-16.158,60.447C607.349,543.861,598.331,548.904,585.228,548.904z M511.025,515.115
			c0.074,0.037,0.129,0.074,0.202,0.11L511.025,515.115z M514.816,514.903l-0.294,0.175
			C514.632,515.023,514.724,514.968,514.816,514.903z M420.571,376.618l27.145,27.145c11.926,11.898,17.759,32.124,14.189,49.156
			l-7.453,31.967l31.286-18.468c15.477-9.441,38.482-9.469,54.364,0.212l30.937,18.238l-7.306-31.341
			c-4.159-16.664,1.583-37.313,14.079-49.782l27.127-27.127l-34.452-5.797c-15.919-2.512-31.709-14.051-38.997-28.664
			l-18.937-37.884l-18.937,37.911c-7.159,14.281-23.041,26.05-38.629,28.645L420.571,376.618z M407.744,443.746l0.018,0.009
			L407.744,443.746z M617.784,443.727l-0.018,0.009L617.784,443.727z M618.686,440.267l0.092,0.34
			C618.741,440.497,618.723,440.387,618.686,440.267z M616.036,378.983h0.184H616.036z M582.063,316.871l0.018,0.028
			C582.081,316.889,582.063,316.88,582.063,316.871z M581.05,315.27L581.05,315.27L581.05,315.27L581.05,315.27z M445.637,315.077
			h-0.018H445.637z M579.578,315.031l0.239,0.037C579.744,315.049,579.67,315.04,579.578,315.031z"/>
	</g>
</g>
</svg>
