<?xml version="1.0" encoding="utf-8"?>
<!-- Generator: Adobe Illustrator 24.0.1, SVG Export Plug-In . SVG Version: 6.00 Build 0)  -->
<svg version="1.1" id="Layer_1" xmlns="http://www.w3.org/2000/svg" xmlns:xlink="http://www.w3.org/1999/xlink" x="0px" y="0px"
	 viewBox="0 0 1024 1024" style="enable-background:new 0 0 1024 1024;" xml:space="preserve">
<path d="M100.5,254.58c14.111-52.426,45.319-72.099,92.698-72.099c212.863,0,425.726,0,638.589,0c46.967,0,77.97,20.6,91.566,72.614
	c-70.039,43.946-140.559,88.166-211.558,132.662c-56.649,35.431-112.68,72.099-170.668,105.161
	c-13.184,7.622-37.388,11.742-48.821,4.738C361.085,418.656,232.337,336.978,100.5,254.58z"/>
<path d="M99.572,336.978c124.319,77.558,240.089,147.287,352.975,221.549c41.199,27.294,73.438,29.869,115.873,1.545
	c99.702-66.537,202.701-128.233,304.463-191.68c14.008-8.755,28.736-16.377,49.542-28.016c0,146.567,2.163,286.438-1.133,426.207
	c-1.133,47.07-35.431,74.056-83.017,74.262c-217.738,0.824-435.477,0.824-653.215,0c-50.16,0-84.046-30.899-84.767-78.176
	C98.748,624.446,99.572,485.914,99.572,336.978z"/>
<title>icons8-nova-mensagem-96</title>
</svg>
