<?xml version="1.0" encoding="utf-8"?>
<!-- Generator: Adobe Illustrator 24.0.1, SVG Export Plug-In . SVG Version: 6.00 Build 0)  -->
<svg version="1.1" id="Layer_1" xmlns="http://www.w3.org/2000/svg" xmlns:xlink="http://www.w3.org/1999/xlink" x="0px" y="0px"
	 viewBox="0 0 1024 1024" style="enable-background:new 0 0 1024 1024;" xml:space="preserve">
<g>
	<path d="M0.273,294.532c154.493,96.382,298.363,183.037,438.649,275.323c51.199,33.919,91.263,37.119,143.998,1.92
		c123.902-82.687,251.9-159.357,378.362-238.204c17.408-10.88,35.711-20.352,61.567-34.815c0,182.141,2.688,355.962-1.408,529.655
		c-1.408,58.495-44.031,92.03-103.166,92.286c-270.588,1.024-541.175,1.024-811.762,0c-62.335,0-104.446-38.399-105.342-97.15
		C-0.751,651.774,0.273,479.616,0.273,294.532z"/>
	<path d="M1.425,192.133c17.536-65.151,56.319-89.598,115.198-89.598c264.528,0,529.057,0,793.587,0
		c58.367,0,96.894,25.6,113.79,90.238c-87.039,54.612-174.675,109.566-262.907,164.861C690.694,401.666,621.063,447.233,549,488.32
		c-16.384,9.472-46.463,14.592-60.671,5.888C325.259,396.034,165.262,294.532,1.425,192.133z"/>
</g>
<title>icons8-nova-mensagem-96</title>
</svg>
