<?xml version="1.0" encoding="utf-8"?>
<!-- Generator: Adobe Illustrator 24.0.1, SVG Export Plug-In . SVG Version: 6.00 Build 0)  -->
<svg version="1.1" id="Layer_1" xmlns="http://www.w3.org/2000/svg" xmlns:xlink="http://www.w3.org/1999/xlink" x="0px" y="0px"
	 viewBox="0 0 1024 1024" style="enable-background:new 0 0 1024 1024;" xml:space="preserve">
<g>
	<circle cx="479.9" cy="94.129" r="91.657"/>
	<path d="M1019.225,348.899c-46.252,42.201-62.64,83.423-73.257,138.359c-24.357,126.048-53.4,251.17-80.379,375.948
		c58.431,92.928,21.869,132.905-22.398,152.232c-42.175,18.4-90.916-6.645-105.557-51.574
		c-16.865-51.706,15.62-93.087,88.453-110.534c27.005-125.987,54.239-253.067,81.702-381.243
		c-28.17,1.589-34.127,42.784-66.188,31.267c-14.906-14.694-7.413-26.713,4.421-38.521c43.155-43.049,86.68-85.78,129.12-129.57
		c13.952-14.403,30.129-21.577,43.949-6.672C1026.877,336.694,1024.229,344.319,1019.225,348.899z"/>
	<path d="M683.229,348.979c-33.65-0.265-67.3,0-100.367,0c-18.771-30.049-35.503-57.451-52.95-84.509
		c-42.678-66.506-102.035-89.513-178.972-73.23c-107.277,22.689-198.988,63.779-231.711,181.143
		c-1.324,4.766-22.901,70.689,7.943,87.924c33.518,18.533,58.457,2.118,75.242-28.62c17.791-32.591,34.894-65.526,51.891-97.508
		c22.16-6.433,39.713-20.439,62.27-19.327c0,5.586,0.821,9.134,0,12.126c-11.57,37.065-23.43,74.13-35.185,111.196
		c-20.73,65.394-13.238,88.904,42.704,130.417c42.228,31.294,84.8,61.978,127.981,93.749c24.304,72.621,36.377,143.84,66.876,211.59
		c-149.479,8.393-295.092,16.653-440.732,24.675c-51.309,2.833-77.572,22.927-78.208,60.655
		c-0.635,40.03,27.402,61.978,81.332,62.058c173.201,0.265,346.41,0.265,519.628,0h122.977
		c-39.713-52.95-37.065-102.644-10.749-154.456H590.698c27.746-71.298-21.339-130.523-28.673-195.44
		c-8.684-76.619-65.553-114.187-120.012-155.595c13.238-43.684,25.787-84.403,42.36-138.836
		c23.033,72.357,69.18,79.028,122.156,74.131c25.257-2.303,50.912-0.556,76.381-0.371c33.226,0.265,58.643-13.238,59.86-48.026
		C744.122,365.526,718.97,349.243,683.229,348.979z M60.242,986.051c-14.329,0.015-25.958-11.59-25.972-25.919
		c-0.015-14.329,11.59-25.958,25.919-25.972c14.329-0.015,25.957,11.59,25.972,25.919c0,0.018,0,0.035,0,0.053
		C86.161,974.447,74.556,986.051,60.242,986.051z"/>
	<path d="M239.346,627.683l29.864-52.712l74.792,60.046c-8.763,20.015-16.785,38.018-24.569,56.101
		c-11.358,26.475-30.738,38.68-59.887,36.403c-52.288-4.077-104.656-7.307-156.971-11.014c-32.379-2.303-51.335-21.18-49.429-52.262
		c1.986-32.22,25.522-45.749,56.842-44.187C152.137,622.096,194.259,624.956,239.346,627.683z"/>
</g>
</svg>
