<?xml version="1.0" encoding="utf-8"?>
<!-- Generator: Adobe Illustrator 24.0.1, SVG Export Plug-In . SVG Version: 6.00 Build 0)  -->
<svg version="1.1" id="Layer_1" xmlns="http://www.w3.org/2000/svg" xmlns:xlink="http://www.w3.org/1999/xlink" x="0px" y="0px"
	 viewBox="0 0 1024 1024" style="enable-background:new 0 0 1024 1024;" xml:space="preserve">
<path d="M924,412.228V527.73c-27.949,28.791-52.195,63.308-84.185,84.185c-32.177,20.002-58.082,48.649-74.757,82.67
	c-67.348,133.013-165.677,180.325-311.654,156.08c-26.771-4.378-57.92-13.469-80.649-4.546
	c-54.72,21.888-91.594-2.863-124.258-37.547c-31.515-30.511-57.946-65.866-78.293-104.727
	c-51.824-115.971-75.534-242.54-69.2-369.405c3.536-79.64,50.511-131.834,121.396-162.478
	c44.45-19.363,128.467,23.909,151.534,73.578c14.144,31.149-12.628,82.334-60.95,103.38c-22.057,9.765-50.511,6.903-76.104,9.765
	c19.026,73.409,80.986,112.977,127.625,175.948c47.649-81.828,120.89-91.594,194.132-92.772
	c5.219-14.985,9.092-25.256,12.628-35.695c26.434-80.145,84.185-120.048,166.013-125.436
	c81.828-5.388,136.717,31.99,170.897,104.222C912.908,394.348,918.192,403.456,924,412.228z"/>
<title>icons8-flexão-de-biceps-50</title>
</svg>
