<?xml version="1.0" encoding="utf-8"?>
<!-- Generator: Adobe Illustrator 24.0.1, SVG Export Plug-In . SVG Version: 6.00 Build 0)  -->
<svg version="1.1" id="Layer_1" xmlns="http://www.w3.org/2000/svg" xmlns:xlink="http://www.w3.org/1999/xlink" x="0px" y="0px"
	 viewBox="0 0 1024 1024" style="enable-background:new 0 0 1024 1024;" xml:space="preserve">
<g>
	<path d="M1024,512c0,28.278-22.917,51.195-51.195,51.195v102.406c0,28.278-22.917,51.195-51.195,51.195
		c-28.278,0-51.211-22.917-51.211-51.195v51.195c0,28.278-22.917,51.211-51.195,51.211s-51.195-22.933-51.195-51.211V563.195
		H255.992v153.602c0,28.278-22.917,51.211-51.195,51.211s-51.195-22.933-51.195-51.211v-51.195
		c0,28.278-22.933,51.195-51.211,51.195c-28.278,0-51.195-22.917-51.195-51.195V563.195C22.917,563.195,0,540.278,0,512
		c0-28.278,22.917-51.195,51.195-51.195V358.399c0-28.278,22.917-51.195,51.195-51.195c28.278,0,51.211,22.917,51.211,51.195
		v-51.195c0-28.278,22.917-51.211,51.195-51.211s51.195,22.933,51.195,51.211v153.602h512.015V307.203
		c0-28.278,22.917-51.211,51.195-51.211s51.195,22.933,51.195,51.211v51.195c0-28.278,22.933-51.195,51.211-51.195
		c28.278,0,51.195,22.917,51.195,51.195v102.406C1001.083,460.805,1024,483.722,1024,512z"/>
</g>
</svg>
