<?xml version="1.0" encoding="utf-8"?>
<!-- Generator: Adobe Illustrator 24.0.1, SVG Export Plug-In . SVG Version: 6.00 Build 0)  -->
<svg version="1.1" id="Layer_1" xmlns="http://www.w3.org/2000/svg" xmlns:xlink="http://www.w3.org/1999/xlink" x="0px" y="0px"
	 viewBox="0 0 1024 1024" style="enable-background:new 0 0 1024 1024;" xml:space="preserve">
<path d="M930.909,0H93.091C41.658,0,0,41.658,0,93.091v837.818C0,982.342,41.658,1024,93.091,1024h837.818
	c51.433,0,93.091-41.658,93.091-93.091V93.091C1024,41.658,982.295,0,930.909,0z M869.888,440.972
	c-6.051,0.559-12.148,0.931-18.292,0.931c-69.586,0-130.746-35.747-166.353-89.879c0,141.917,0,303.43,0,306.129
	c0,124.975-101.329,226.257-226.257,226.257c-124.928-0.047-226.257-101.376-226.257-226.304
	c0-124.975,101.329-226.257,226.257-226.257c4.748,0,9.356,0.419,13.964,0.698V544.07c-4.655-0.559-9.169-1.396-13.964-1.396
	c-63.767,0-115.479,51.712-115.479,115.479s51.665,115.479,115.479,115.479s120.134-50.269,120.134-114.036
	c0-2.56,1.117-519.913,1.117-519.913h106.543c10.007,95.279,86.947,170.496,183.11,177.385V440.972z"/>
</svg>
