<?xml version="1.0" encoding="utf-8"?>
<!-- Generator: Adobe Illustrator 24.0.1, SVG Export Plug-In . SVG Version: 6.00 Build 0)  -->
<svg version="1.1" id="Layer_1" xmlns="http://www.w3.org/2000/svg" xmlns:xlink="http://www.w3.org/1999/xlink" x="0px" y="0px"
	 viewBox="0 0 1024 1024" style="enable-background:new 0 0 1024 1024;" xml:space="preserve">
<path d="M849.091,100H174.909C133.522,100,100,133.522,100,174.909v674.182C100,890.478,133.522,924,174.909,924h674.182
	C890.478,924,924,890.478,924,849.091V174.909C924,133.522,890.441,100,849.091,100z M799.988,454.844
	c-4.869,0.449-9.776,0.749-14.72,0.749c-55.995,0-105.21-28.765-133.863-72.325c0,114.199,0,244.166,0,246.339
	c0,100.565-81.539,182.067-182.067,182.067c-100.528-0.038-182.067-81.576-182.067-182.104
	c0-100.565,81.539-182.067,182.067-182.067c3.82,0,7.528,0.337,11.236,0.562v89.741c-3.745-0.449-7.379-1.124-11.236-1.124
	c-51.313,0-92.925,41.612-92.925,92.925s41.575,92.925,92.925,92.925s96.67-40.451,96.67-91.764c0-2.06,0.899-418.367,0.899-418.367
	h85.733c8.053,76.669,69.965,137.196,147.346,142.739V454.844z"/>
</svg>
