<?xml version="1.0" encoding="utf-8"?>
<!-- Generator: Adobe Illustrator 24.0.1, SVG Export Plug-In . SVG Version: 6.00 Build 0)  -->
<svg version="1.1" id="Layer_1" xmlns="http://www.w3.org/2000/svg" xmlns:xlink="http://www.w3.org/1999/xlink" x="0px" y="0px"
	 viewBox="0 0 1024 1024" style="enable-background:new 0 0 1024 1024;" xml:space="preserve">
<path d="M302.545,0C135.68,0,0,135.68,0,302.545v418.909C0,888.32,135.68,1024,302.545,1024h418.909
	C888.32,1024,1024,888.32,1024,721.455V302.545C1024,135.68,888.32,0,721.455,0H302.545z M791.273,186.182
	c25.6,0,46.545,20.945,46.545,46.545c0,25.6-20.945,46.545-46.545,46.545c-25.6,0-46.545-20.945-46.545-46.545
	C744.727,207.127,765.673,186.182,791.273,186.182z M512,256c141.265,0,256,114.735,256,256S653.265,768,512,768
	S256,653.265,256,512S370.735,256,512,256z M512,302.545c-115.433,0-209.455,94.022-209.455,209.455S396.567,721.455,512,721.455
	S721.455,627.433,721.455,512S627.433,302.545,512,302.545z"/>
</svg>
