<?xml version="1.0" encoding="utf-8"?>
<!-- Generator: Adobe Illustrator 24.0.1, SVG Export Plug-In . SVG Version: 6.00 Build 0)  -->
<svg version="1.1" id="Layer_1" xmlns="http://www.w3.org/2000/svg" xmlns:xlink="http://www.w3.org/1999/xlink" x="0px" y="0px"
	 viewBox="0 0 1024 1024" style="enable-background:new 0 0 1024 1024;" xml:space="preserve">
<path d="M818.838,747.013V277.875c-50.477,50.478-96.378,92.71-137.635,139.116c-28.671,32.306-44.925,16.186-64.914-6.73
	c-17.095-19.72-45.362-32.608-11.139-64.88c74.808-70.5,146.149-144.702,218.736-217.457c18.845-18.879,38.767-35.704,67.539-22.648
	c27.224,12.35,32.642,36.142,32.575,63.938c-0.471,227.149-0.471,454.298,0,681.446c0,29.883-3.87,56.939-34.459,69.221
	c-32.036,12.889-51.891-9.624-71.779-29.546c-177.232-177.344-354.464-354.7-531.696-532.067
	c-24.027-24.061-47.314-48.829-78.24-80.764v466.479c47.819-47.886,94.225-89.749,134.943-136.491
	c32.844-37.69,47.651-8.884,69.928,9.793c26.652,22.311,30.522,38.733,2.457,65.352c-73.058,69.255-143.02,141.741-214.226,212.982
	c-18.744,18.744-38.632,36.243-67.472,23.758c-27.224-11.812-33.652-35.301-33.45-63.4c0.538-229.302,0.538-458.594,0-687.874
	c0-28.335,6.73-51.655,33.652-63.4c32.137-13.999,51.992,8.346,71.846,28.234L818.838,747.013z"/>
<title>icons8-transitions-browser-96</title>
</svg>
