<?xml version="1.0" encoding="utf-8"?>
<!-- Generator: Adobe Illustrator 24.0.1, SVG Export Plug-In . SVG Version: 6.00 Build 0)  -->
<svg version="1.1" id="Layer_1" xmlns="http://www.w3.org/2000/svg" xmlns:xlink="http://www.w3.org/1999/xlink" x="0px" y="0px"
	 viewBox="0 0 1024 1024" style="enable-background:new 0 0 1024 1024;" xml:space="preserve">
<g>
	<g>
		<path d="M191.854,345.854c64.024,2.729,118.138-46.961,120.866-110.985c2.644-62.041-44.026-115.167-105.892-120.537
			c-1.694-0.147-3.392-0.257-5.092-0.329c-64.024-2.729-118.138,46.961-120.866,110.985
			C78.141,289.013,127.83,343.126,191.854,345.854z"/>
	</g>
	<path d="M1024,882.894c0,15.02-12.18,27.21-27.21,27.21H27.21c-7.51,0-14.32-3.05-19.24-7.97c-4.93-4.93-7.97-11.73-7.97-19.24
		c0-15.03,12.18-27.22,27.21-27.22h374.45c-82.36-101.69-158.86-193.06-232.01-287.36c-73.22-94.4-55.2-151.63,57-192.86
		c115.81-42.35,231.84-84.71,346.52-129.77c45.06-17.35,90.12-37.4,115.13,19.6s-27.04,78.41-67.59,97.33
		c-74.58,35.38-150.5,67.14-236.57,104.99l128.42,157.72c107.02-58.13,205.03-111.53,303.48-164.48
		c16.69-8.46,33.84-15.98,51.37-22.53c34.7-13.74,67.6-12.84,88.32,22.53c20.73,35.38,2.93,64.44-27.48,85.62
		c-21.21,15.55-43.84,29.05-67.59,40.33c-130.45,57.45-221.7,161.77-332.33,268.33c-0.39,0.18-0.78,0.37-1.16,0.55h469.62
		c7.51,0,14.32,3.05,19.24,7.97C1020.96,868.574,1024,875.374,1024,882.894z"/>
</g>
</svg>
