<?xml version="1.0" encoding="utf-8"?>
<!-- Generator: Adobe Illustrator 24.0.1, SVG Export Plug-In . SVG Version: 6.00 Build 0)  -->
<svg version="1.1" id="Layer_1" xmlns="http://www.w3.org/2000/svg" xmlns:xlink="http://www.w3.org/1999/xlink" x="0px" y="0px"
	 viewBox="0 0 1024 1024" style="enable-background:new 0 0 1024 1024;" xml:space="preserve">
<g>
	<path d="M345.25,204.8c-85.348,0-154.784,69.478-154.784,154.876c0,11.864,9.612,21.48,21.466,21.48
		c11.856,0,21.466-9.616,21.466-21.48c0-61.712,50.176-111.918,111.852-111.918c11.856,0,21.466-9.616,21.466-21.48
		C366.716,214.416,357.106,204.8,345.25,204.8z"/>
	<path d="M723.314,603.022c38.804-60.872,61.29-133.092,61.29-210.488C784.604,176.072,608.636,0,392.302,0
		c-77.352,0-149.53,22.5-210.364,61.326c-48.47,30.92-89.718,72.192-120.62,120.69C22.514,242.888,0,315.136,0,392.534
		c0,216.434,175.996,392.532,392.302,392.532c77.352,0,149.558-22.528,210.394-61.354
		C651.164,692.792,692.412,651.52,723.314,603.022z M519.516,640.484c-38.15,19.684-81.416,30.806-127.214,30.806
		c-153.594,0-278.592-125.07-278.592-278.756c0-45.824,11.116-89.116,30.788-127.288c26.636-51.712,68.966-94.038,120.646-120.662
		c38.15-19.684,81.388-30.806,127.156-30.806c153.624,0,278.592,125.042,278.592,278.756c0,45.796-11.116,89.06-30.788,127.232
		C613.498,571.478,571.196,613.832,519.516,640.484z"/>
	<path d="M999.032,878.308L772.55,652.26c-32.238,47.104-73.542,88.404-120.618,120.69l226.482,226.048
		c16.658,16.668,38.492,25.002,60.296,25.002c21.832,0,43.666-8.334,60.324-25.002
		C1032.322,965.66,1032.322,911.644,999.032,878.308z"/>
</g>
</svg>
