<?xml version="1.0" encoding="utf-8"?>
<!-- Generator: Adobe Illustrator 24.0.1, SVG Export Plug-In . SVG Version: 6.00 Build 0)  -->
<svg version="1.1" id="Layer_1" xmlns="http://www.w3.org/2000/svg" xmlns:xlink="http://www.w3.org/1999/xlink" x="0px" y="0px"
	 viewBox="0 0 1024 1024" style="enable-background:new 0 0 1024 1024;" xml:space="preserve">
<g>
	<g>
		<path d="M512,741.1c-19.12,0-37.988-1.624-56.079-4.826c-100.699-14.66-192.387-72.557-250.501-158.676
			c-40.412-60.584-61.705-131.334-61.705-204.771C143.716,169.76,308.933,4.555,512,4.555S880.261,169.76,880.261,372.827
			c0,73.437-21.292,144.187-61.59,204.611c-58.228,86.29-149.916,144.176-251.621,159.007C549.942,739.476,531.074,741.1,512,741.1z
			 M512,74.813c-164.325,0-298.026,133.69-298.026,298.014c0,59.509,17.222,116.788,49.789,165.64
			c46.976,69.595,121.122,116.468,203.342,128.452c30.212,5.317,60.515,5.169,88.76,0.172
			c83.226-12.144,157.372-59.029,204.462-128.784c32.453-48.691,49.675-105.971,49.675-165.48
			C810.003,208.502,676.325,74.813,512,74.813z"/>
	</g>
	<g>
		<path d="M248.692,1019.445c-6.449,0-12.945-0.743-19.417-2.276c-30.555-7.261-54.02-30.761-61.293-61.327l-16.627-69.938
			c-1.098-4.425-4.597-8.153-8.668-9.057l-78.995-18.662c-29.137-6.907-52.328-29.137-60.538-58.023
			c-8.188-28.84-0.16-59.852,20.904-80.95l185.64-185.617c7.41-7.422,17.908-10.989,28.199-10.132
			c10.452,1.006,19.897,6.621,25.752,15.323c47.09,69.755,121.237,116.628,203.456,128.612c13.288,2.333,26.301,3.591,39.452,3.865
			c1.784-0.274,3.591-0.423,5.42-0.423c0.023,0,0.023,0,0.023,0c1.83,0,3.659,0.149,5.443,0.423
			c13.128-0.263,26.027-1.509,38.422-3.694c83.226-12.144,157.372-59.029,204.485-128.795c5.878-8.691,15.323-14.306,25.752-15.312
			c10.429-0.892,20.789,2.71,28.199,10.132l185.594,185.606c20.927,20.538,29.091,51.321,21.064,80.115
			c-8.119,29.08-31.355,51.459-60.653,58.388c0,0,0,0.011-0.023,0.011l-78.515,18.559c-3.522,0.858-7.913,3.556-8.942,8.428
			l-16.833,70.693c-7.273,30.566-30.761,54.055-61.316,61.304c-30.738,7.216-62.276-3.202-82.54-27.307L512.023,759.499
			L311.494,990.297C295.782,1008.994,272.752,1019.445,248.692,1019.445z M230.967,611.675L73.755,768.876
			c-4.368,4.368-3.751,9.457-3.019,12.099c0.778,2.676,2.973,7.376,9.125,8.839l78.515,18.548
			c29.594,6.575,53.837,30.589,61.27,61.076l16.695,70.167c1.555,6.484,6.427,8.554,9.194,9.205
			c2.79,0.709,8.165,1.063,12.579-4.174l182.781-210.397C359.728,718.824,285.353,675.267,230.967,611.675z M583.15,734.204
			L765.52,943.71c4.734,5.649,10.177,5.306,12.922,4.631c2.79-0.663,7.662-2.733,9.217-9.205l16.65-69.961
			c6.427-29.915,29.915-53.654,61.11-61.224l78.697-18.605c6.221-1.475,8.416-6.209,9.171-8.897
			c0.686-2.516,1.258-7.33-2.836-11.344L793.01,611.664C738.83,675.027,664.684,718.515,583.15,734.204z M952.212,823.525h0.229
			H952.212z"/>
	</g>
	<g>
		<path d="M603.002,557.861c-12.167,0-27.17-3.499-44.758-13.997l-45.307-26.736l-45.444,26.827
			c-40.046,23.351-66.004,12.03-77.943,3.202c-11.893-8.782-30.281-30.178-19.806-74.787l10.932-46.953l-37.736-37.748
			c-20.652-20.629-28.382-45.444-21.247-68.086c7.136-22.688,27.788-38.617,56.627-43.694l48.92-8.233l27.147-54.272
			c11.71-25.947,32.613-41.784,56.719-42.253c24.311-0.629,46.221,14.923,59.898,42.253l27.102,54.192l49.149,8.268
			c28.634,4.631,49.423,20.378,56.787,43.157c7.387,22.836-0.32,47.868-21.109,68.669l-37.759,37.759l10.955,46.987
			c10.932,46.53-10.406,68.04-20.08,75.118C630.492,551.595,619.286,557.861,603.002,557.861z M510.788,515.871
			c0.091,0.046,0.16,0.091,0.252,0.137L510.788,515.871z M515.499,515.608l-0.366,0.217
			C515.271,515.756,515.385,515.688,515.499,515.608z M398.379,343.759l33.734,33.734c14.82,14.786,22.07,39.921,17.633,61.087
			l-9.263,39.726l38.88-22.951c19.234-11.733,47.822-11.767,67.56,0.263l38.445,22.665l-9.08-38.949
			c-5.169-20.709,1.967-46.37,17.496-61.865l33.711-33.711l-42.814-7.204c-19.783-3.122-39.406-17.462-48.463-35.621l-23.534-47.079
			l-23.534,47.113c-8.897,17.748-28.634,32.373-48.005,35.598L398.379,343.759z M382.439,427.179l0.023,0.011L382.439,427.179z
			 M643.46,427.156l-0.023,0.011L643.46,427.156z M644.581,422.856l0.114,0.423C644.649,423.142,644.626,423.005,644.581,422.856z
			 M641.287,346.698h0.229H641.287z M599.068,269.51l0.023,0.034C599.091,269.532,599.068,269.521,599.068,269.51z M597.81,267.52
			L597.81,267.52L597.81,267.52L597.81,267.52z M429.529,267.28h-0.023H429.529z M595.981,267.223l0.297,0.046
			C596.187,267.245,596.095,267.234,595.981,267.223z"/>
	</g>
</g>
</svg>
