<?xml version="1.0" encoding="utf-8"?>
<!-- Generator: Adobe Illustrator 24.0.1, SVG Export Plug-In . SVG Version: 6.00 Build 0)  -->
<svg version="1.1" id="Layer_1" xmlns="http://www.w3.org/2000/svg" xmlns:xlink="http://www.w3.org/1999/xlink" x="0px" y="0px"
	 viewBox="0 0 1024 1024" style="enable-background:new 0 0 1024 1024;" xml:space="preserve">
<g>
	<g>
		<path d="M895.639,913.816H128.361c-15.667,0-28.361-12.694-28.361-28.361c0-15.667,12.694-28.361,28.361-28.361h767.278
			c15.667,0,28.361,12.694,28.361,28.361C924,901.122,911.306,913.816,895.639,913.816z"/>
	</g>
	<g>
		<path d="M193.161,885.575l-56.722-0.24l1.92-461.512c0-31.546,15.067-62.372,40.298-82.35l268.737-209.217
			c37.778-29.386,90.853-29.432,129.055-0.12L845.13,340.928c25.73,19.96,40.501,50.223,40.501,83.015v461.512H828.91V423.943
			c0-15.131-6.767-29.053-18.566-38.212l-268.561-208.7c-17.596-13.525-42.154-13.543-59.547-0.018L213.684,386.092
			c-11.577,9.167-18.603,23.366-18.603,37.852L193.161,885.575z"/>
	</g>
	<g>
		<path d="M703.815,913.816H320.176c-15.667,0-28.361-12.694-28.361-28.361V521c0-47.37,38.544-85.904,85.914-85.904h268.543
			c47.37,0,85.904,38.535,85.904,85.904v364.455C732.176,901.122,719.482,913.816,703.815,913.816z M348.537,857.094h326.917V521
			c0-16.091-13.091-29.183-29.183-29.183H377.729c-16.101,0-29.192,13.091-29.192,29.183V857.094z"/>
	</g>
	<g>
		<path d="M435.263,750.777c-15.667,0-28.361-12.694-28.361-28.361v-57.553c0-15.667,12.694-28.361,28.361-28.361
			s28.361,12.694,28.361,28.361v57.553C463.624,738.083,450.93,750.777,435.263,750.777z"/>
	</g>
	<g>
		<path d="M569.544,357.546H454.447c-15.667,0-28.361-12.694-28.361-28.361s12.694-28.361,28.361-28.361h115.096
			c15.667,0,28.361,12.694,28.361,28.361S585.21,357.546,569.544,357.546z"/>
	</g>
</g>
</svg>
