<?xml version="1.0" encoding="utf-8"?>
<!-- Generator: Adobe Illustrator 24.0.1, SVG Export Plug-In . SVG Version: 6.00 Build 0)  -->
<svg version="1.1" id="Layer_1" xmlns="http://www.w3.org/2000/svg" xmlns:xlink="http://www.w3.org/1999/xlink" x="0px" y="0px"
	 viewBox="0 0 1024 1024" style="enable-background:new 0 0 1024 1024;" xml:space="preserve">
<path d="M517.246,478.375C408.959,520.1,389.09,602.16,393.858,710.446c6.954,161.735-111.069,181.405-236.443,175.643
	C32.041,880.327-22.599,822.508,8.596,687.398c41.924-182.001,100.339-354.068,223.329-497.92
	c23.048-27.022,53.448-63.979,89.61-47.09c22.253,10.332,35.565,52.653,41.527,82.855c14.504,75.9,22.452,152.992,33.778,235.648
	c91.994-56.627,78.284-139.084,79.477-216.772c0-30.003,0-65.966,39.738-65.568c39.738,0.398,39.738,35.963,39.738,66.164
	c1.192,77.092-13.511,159.946,77.291,213.99c14.305-91.795,25.631-178.822,41.924-264.458c12.319-65.767,54.441-74.509,97.16-30.201
	c166.794,168.119,257.662,397.083,251.543,633.825c-2.185,103.32-129.547,89.808-211.01,88.02
	c-103.32-2.384-185.578-50.269-175.246-167.298C646.793,606.134,622.353,522.286,517.246,478.375z"/>
<title>icons8-pulmões-60</title>
</svg>
