<?xml version="1.0" encoding="utf-8"?>
<!-- Generator: Adobe Illustrator 24.0.1, SVG Export Plug-In . SVG Version: 6.00 Build 0)  -->
<svg version="1.1" id="Layer_1" xmlns="http://www.w3.org/2000/svg" xmlns:xlink="http://www.w3.org/1999/xlink" x="0px" y="0px"
	 viewBox="0 0 1024 1024" style="enable-background:new 0 0 1024 1024;" xml:space="preserve">
<g>
	<path d="M18.444,875.139c0-87.099,35.449-149.835,115.118-183.457c39.171-16.339,79.279-30.332,120.112-41.905
		c66.756-19.247,111.219-51.894,86.369-139.359c-36.545-25.094-64.563-76.501-78.451-120.599
		c-28.384-90.998-43.976-190.523,0-284.079C298.99,26.436,370.01-0.242,452.115,0.002c150.566,0,239.493,120.721,218.297,269.338
		c-8.649,60.909-6.578,119.138-46.778,169.205c-8.444,13.631-18.151,26.438-28.993,38.251
		C425.558,618.469,404.484,668.902,432.745,875.139L18.444,875.139z"/>
	<path d="M977.392,653.187c-13.091-26.261-30.651-50.046-51.894-70.289c-1.584-1.706-3.289-3.289-4.873-4.751
		c-30.867-28.014-68.071-48.121-108.418-58.594c-2.68-0.609-5.482-1.34-8.284-1.827c-18.302-4.177-37.02-6.261-55.793-6.213
		c-23.561-0.049-47.013,3.19-69.679,9.624l-6.578,1.949c-41.829,13.129-79.581,36.787-109.636,68.705l0,0
		c-42.27,44.716-66.933,103.216-69.436,164.697c0,3.654,0,7.309,0,11.085v2.071c0,8.162,0,16.202,1.34,24.364
		c0,2.802,0,5.604,0.975,8.284c12.767,95.093,77.671,175.047,168.108,207.09c24.827,8.863,50.885,13.795,77.233,14.618
		c2.923,0,5.847,0,8.771,0c2.923,0,5.847,0,8.77,0c34.007-1.015,67.453-8.931,98.307-23.267
		c128.426-58.889,184.797-210.737,125.908-339.163c-1.311-2.86-2.675-5.695-4.091-8.504L977.392,653.187z M791.011,808.139
		c-24.364,30.089,24.363,105.372-46.534,101.961c-57.132-2.802-20.1-67.73-35.814-100.256
		c-33.5-20.465-102.936,22.658-102.083-43.124c0.731-60.909,65.66-22.049,101.596-41.296c16.445-33.743-21.562-98.428,38.616-99.647
		c66.391-1.34,23.633,67.974,42.636,100.743c32.403,20.222,101.961-23.267,101.108,42.514
		C889.805,829.823,825.485,792.668,791.011,808.139L791.011,808.139z"/>
</g>
</svg>
