<?xml version="1.0" encoding="utf-8"?>
<!-- Generator: Adobe Illustrator 24.0.1, SVG Export Plug-In . SVG Version: 6.00 Build 0)  -->
<svg version="1.1" id="Layer_1" xmlns="http://www.w3.org/2000/svg" xmlns:xlink="http://www.w3.org/1999/xlink" x="0px" y="0px"
	 viewBox="0 0 1024 1024" style="enable-background:new 0 0 1024 1024;" xml:space="preserve">
<g>
	<path d="M553.657,759.217c-14.801-20.987-24.444-45.17-28.144-70.583c-3.127-105.428-1.34-211.303-1.34-326.113l105.652,62.988
		c51.112-15.181,101.178-33.686,149.878-55.395c19.159-14.602,29.318-38.138,26.804-62.095
		c-12.522-20.925-34.82-34.051-59.192-34.845c-35.516,2.903-69.913,20.773-110.342,33.951
		c-59.863-72.816-130.893-83.092-225.376-65.446c-100.96,19.656-151.888,80.858-196.561,153.675
		c-42.441-7.728-85.522-11.393-128.658-10.945c-22.984,7.673-41.021,25.709-48.693,48.693c1.066,20.972,13.125,39.824,31.717,49.587
		c73.934,11.615,148.315,54.055,239.894-4.69c-12.061,67.233-11.168,125.085-33.505,173.109
		c-40.837,84.354-45.04,181.823-11.615,269.378c14.519,41.769,5.808,106.322,77.061,103.418
		c44.673-1.787,51.374-37.972,29.037-129.775c-15.858-62.095-31.941-123.298,24.347-169.757
		c42.216,63.436,82.869,128.435,127.542,189.637c26.133,35.961,52.714,96.94,111.682,52.267
		c52.937-39.76,4.913-79.071-17.423-114.81C596.99,819.749,572.643,791.158,553.657,759.217z"/>
	<path d="M842.244,421.935V639.27c-33.058,4.69-50.034,6.701-68.35,9.827c-46.683,8.042-76.167,32.165-64.999,83.092
		c8.935,41.546,65.669,63.212,110.342,44.673c39.73-14.521,65.237-53.373,62.766-95.6c-0.224-44.673,0.224-89.346,1.787-134.019
		c2.009-9.343,5.639-18.264,10.721-26.357l91.803,12.062v-79.741L842.244,421.935z"/>
	<path d="M378.762,199.688c54.366-1.745,97.998-45.475,99.621-99.844c0-0.074,0-0.149,0-0.223
		C478.261,44.479,433.458-0.123,378.316,0c-55.142,0.123-99.744,44.924-99.621,100.066
		C278.819,155.209,323.62,199.811,378.762,199.688z"/>
</g>
</svg>
