<?xml version="1.0" encoding="utf-8"?>
<!-- Generator: Adobe Illustrator 24.0.1, SVG Export Plug-In . SVG Version: 6.00 Build 0)  -->
<svg version="1.1" id="Layer_1" xmlns="http://www.w3.org/2000/svg" xmlns:xlink="http://www.w3.org/1999/xlink" x="0px" y="0px"
	 viewBox="0 0 1024 1024" style="enable-background:new 0 0 1024 1024;" xml:space="preserve">
<g>
	<path d="M122.927,338.455l20.875-77.425c4.012-14.857,13.229-22.067,27.272-22.067h51.752l10.845-39.716h-63.789
		c-32.912,0-52.566,12.822-59.806,38.902L83.211,338.455H58.44l-10.031,38.117h24.481L39.89,499.731h40.094l32.912-123.159h59.777
		l10.031-38.117H122.927z"/>
	<polygon points="260.972,199.247 180.726,499.76 220.849,499.76 301.094,199.247 	"/>
	<polygon points="437.104,237.363 447.135,199.247 325.953,199.247 315.922,237.363 356.452,237.363 286.237,499.76 326.36,499.76 
		396.575,237.363 	"/>
	<path d="M514.907,195.235c-31.982,0-52.974,14.043-60.184,41.315l-70.651,263.181h40.123l66.609-247.946
		c2.791-11.223,9.575-16.834,20.352-16.834c17.27,0,23.26,7.617,19.276,22.475l-64.952,242.306h40.123l63.818-238.701
		C581.139,217.68,562.27,195.235,514.907,195.235z"/>
	<path d="M651.354,261.03c4.012-14.857,12.822-22.067,26.865-22.067h51.84l10.845-39.716h-63.876
		c-32.883,0-52.566,12.822-59.777,38.902l-22.475,84.665h-24.888l-10.031,38.117h24.481L565.09,433.15
		c-12.037,44.542,4.797,66.58,49.746,66.58h45.734l10.031-38.087h-47.74c-16.456,0-22.475-8.722-18.055-26.167l20.061-74.634h58.963
		l10.06-38.117h-58.992L651.354,261.03z"/>
	<path d="M809.431,330.837l-18.055-9.217c-12.444-6.425-17.241-16.049-13.636-29.307l10.845-40.53
		c2.539-10.052,11.672-17.028,22.038-16.834c14.043,0,20.352,8.432,17.27,22.474l-4.797,19.654h40.123l4.012-16.049
		c10.438-41.344-10.031-65.795-54.573-65.795c-30.877,0-52.944,15.235-60.155,41.315l-15.264,57.364
		c-7.617,28.493,1.192,48.554,24.888,60.184l17.648,8.722c11.223,6.425,15.642,16.456,11.63,31.284l-13.636,52.974
		c-3.227,11.223-10.845,16.834-22.475,16.834c-14.828,0-20.846-7.617-17.241-22.445l6.803-28.086h-40.123l-6.018,24.452
		c-10.438,43.466,8.083,65.912,54.602,65.912c32.505,0,54.166-16.834,62.597-49.426l16.049-60.184
		C839.93,363.75,832.313,343.281,809.431,330.837z"/>
	<path d="M959.891,195.235c-30.906,0-52.974,15.235-60.184,41.315l-15.235,57.364c-7.617,28.493,1.192,48.554,24.859,60.184
		l17.648,8.722c11.252,6.425,15.671,16.456,11.63,31.284l-13.752,53.09c-3.198,11.223-10.816,16.834-22.445,16.834
		c-14.857,0-20.875-7.617-17.27-22.445l6.833-28.086h-40.123l-6.018,24.452c-10.438,43.35,8.025,65.795,54.573,65.795
		c32.476,0,54.137-16.834,62.568-49.426l16.049-60.184c8.025-30.47,0.407-50.938-22.445-63.382l-18.055-9.217
		c-12.444-6.425-17.27-16.049-13.665-29.307l10.845-40.53c2.551-10.057,11.694-17.031,22.067-16.834
		c14.043,0,20.352,8.432,17.241,22.474l-4.797,19.654h40.123l4.012-16.049C1024.872,219.686,1004.433,195.235,959.891,195.235z"/>
	<path d="M382.328,553.751c-28.842,0-47.362,12.444-53.759,36.663l-47.711,178.749c-10.321,38.465,6.396,58.381,48.758,58.381
		c28.842,0,47.013-12.444,53.439-36.663l29.54-110.018h-54.485l-8.926,33.814h18.52l-17.067,62.655
		c-1.642,9.163-9.933,15.611-19.218,14.944c-13.549,0-19.247-6.774-15.671-19.945l44.862-168.399
		c2.5-9.973,9.624-14.973,19.945-14.973c13.171,0,18.142,6.774,15.293,19.945l-3.896,17.445h35.238l3.198-14.246
		C438.936,573.812,422.567,553.751,382.328,553.751z"/>
	<path d="M579.598,557.298h-35.616l-28.493,104.668c-1.568,9.059-9.692,15.493-18.869,14.944c-14.246,0-19.567-6.774-16.02-19.945
		l27.068-99.696h-35.267l-26.69,96.498c-8.199,28.842-0.349,47.362,22.067,54.834l-30.615,115.367h35.616l29.888-112.169
		c23.521-2.122,39.192-14.246,44.891-36.314L579.598,557.298z"/>
	<path d="M719.155,553.751c-17.794,0-31.313,9.595-40.21,28.464c-1.425-18.869-12.822-28.464-33.843-28.464
		c-22.416,0-37.797,12.444-44.135,36.663l-62.306,233.584h35.587l59.108-223.611c1.773-7.472,6.396-11.397,13.52-11.397
		c8.926,0,11.775,6.774,8.199,19.945L597.74,824.084h35.616l59.835-223.611c1.773-7.472,6.396-11.397,13.52-11.397
		c8.548,0,11.019,6.774,7.472,19.945l-57.335,215.15h35.616l56.259-211.865C759.132,573.812,748.724,553.751,719.155,553.751z"/>
	<rect x="39.861" y="541.685" width="65.679" height="287.08"/>
	<polygon points="265.798,648.708 181.25,648.708 181.25,541.685 115.571,541.685 115.571,828.765 181.25,828.765 181.25,721.714 
		245.766,721.714 	"/>
	<circle cx="37.361" cy="676.91" r="37.361"/>
	<rect x="921.716" y="541.685" width="65.679" height="287.08"/>
	<polygon points="846.007,541.685 846.007,648.708 777.943,648.708 757.911,721.714 846.007,721.714 846.007,828.765 
		911.686,828.765 911.686,541.685 	"/>
	<path d="M1024,676.91c0.016,20.65-16.711,37.403-37.361,37.419c-20.65,0.016-37.403-16.711-37.419-37.361
		c-0.016-20.65,16.711-37.403,37.361-37.419c0.019,0,0.039,0,0.058,0C1007.273,639.549,1024,656.276,1024,676.91L1024,676.91z"/>
</g>
</svg>
