<?xml version="1.0" encoding="utf-8"?>
<!-- Generator: Adobe Illustrator 24.0.1, SVG Export Plug-In . SVG Version: 6.00 Build 0)  -->
<svg version="1.1" id="Layer_1" xmlns="http://www.w3.org/2000/svg" xmlns:xlink="http://www.w3.org/1999/xlink" x="0px" y="0px"
	 viewBox="0 0 1024 1024" style="enable-background:new 0 0 1024 1024;" xml:space="preserve">
<path d="M512,100c-227.527,0-412,184.473-412,412c0,77.291,21.71,149.352,58.742,211.163L103.688,924l205.128-53.847
	C368.808,904.26,438.063,924,512,924c227.527,0,412-184.473,412-412S739.527,100,512,100z M370.979,319.814
	c6.695,0,13.574-0.041,19.514,0.268c7.347,0.172,15.344,0.71,23.001,17.636c9.098,20.119,28.909,70.592,31.45,75.708
	s4.341,11.142,0.805,17.837c-3.365,6.867-5.115,11.023-10.059,17.1c-5.116,5.905-10.721,13.24-15.356,17.703
	c-5.116,5.116-10.398,10.725-4.493,20.922c5.905,10.197,26.414,43.625,56.73,70.611c38.968,34.814,71.847,45.513,82.078,50.628
	c10.231,5.116,16.157,4.318,22.062-2.548c6.077-6.695,25.522-29.668,32.389-39.899c6.695-10.231,13.53-8.461,22.799-5.096
	c9.407,3.365,59.575,28.078,69.807,33.193s16.939,7.648,19.514,11.802c2.644,4.292,2.646,24.722-5.834,48.549
	c-8.48,23.793-50.123,46.802-68.801,48.415c-18.849,1.751-36.44,8.472-122.514-25.415
	c-103.824-40.891-169.3-147.231-174.416-154.098c-5.116-6.695-41.576-55.287-41.576-105.414c0-50.298,26.372-74.931,35.607-85.163
	C353.094,322.323,364.112,319.814,370.979,319.814z"/>
</svg>
