<?xml version="1.0" encoding="utf-8"?>
<!-- Generator: Adobe Illustrator 24.0.1, SVG Export Plug-In . SVG Version: 6.00 Build 0)  -->
<svg version="1.1" id="Layer_1" xmlns="http://www.w3.org/2000/svg" xmlns:xlink="http://www.w3.org/1999/xlink" x="0px" y="0px"
	 viewBox="0 0 1024 1024" style="enable-background:new 0 0 1024 1024;" xml:space="preserve">
<path d="M292.599,605.089l24.031-42.417l60.184,48.318c-7.052,16.106-13.507,30.593-19.77,45.144
	c-9.139,21.304-24.734,31.125-48.19,29.293c-42.076-3.281-84.216-5.88-126.313-8.863c-26.055-1.854-41.309-17.043-39.775-42.055
	c1.598-25.927,20.537-36.814,45.74-35.557C222.423,600.593,256.318,602.894,292.599,605.089z"/>
<path d="M649.786,380.819c-27.078-0.213-54.155,0-80.764,0c-15.105-24.18-28.569-46.23-42.609-68.003
	c-34.342-53.516-82.107-72.03-144.017-58.928c-86.325,18.258-160.123,51.322-186.455,145.764
	c-1.065,3.835-18.428,56.882,6.391,70.751c26.971,14.913,47.04,1.704,60.547-23.03c14.316-26.226,28.079-52.728,41.756-78.464
	c17.832-5.177,31.956-16.447,50.108-15.552c0,4.495,0.66,7.35,0,9.757c-9.31,29.826-18.854,59.652-28.313,89.478
	c-16.681,52.622-10.652,71.54,34.364,104.945c33.98,25.182,68.237,49.873,102.985,75.438
	c19.557,58.438,29.272,115.746,53.815,170.263c-120.284,6.753-237.457,13.4-354.652,19.856
	c-41.288,2.28-62.421,18.449-62.933,48.808c-0.511,32.212,22.05,49.873,65.447,49.937c139.372,0.213,278.752,0.213,418.138,0h98.958
	c-31.956-42.608-29.826-82.597-8.65-124.289h-98.575c22.327-57.372-17.171-105.03-23.073-157.268
	c-6.988-61.654-52.749-91.885-96.572-125.205c10.652-35.152,20.75-67.918,34.087-111.719c18.535,58.224,55.668,63.593,98.298,59.652
	c20.324-1.853,40.968-0.447,61.463-0.298c26.737,0.213,47.189-10.652,48.169-38.646
	C698.786,394.134,678.547,381.032,649.786,380.819z M148.476,893.463c-11.531,0.012-20.888-9.326-20.899-20.857
	c-0.012-11.531,9.326-20.888,20.857-20.899c11.531-0.012,20.888,9.326,20.899,20.857c0,0.014,0,0.029,0,0.043
	C169.332,884.125,159.995,893.463,148.476,893.463z"/>
<path d="M920.158,380.755c-37.218,33.959-50.406,67.13-58.949,111.336c-19.6,101.429-42.971,202.113-64.68,302.52
	c47.018,74.778,17.597,106.947-18.023,122.499c-33.938,14.807-73.159-5.347-84.94-41.501c-13.571-41.607,12.57-74.906,71.177-88.945
	c21.73-101.38,43.645-203.64,65.745-306.781c-22.668,1.278-27.461,34.428-53.261,25.16c-11.994-11.824-5.965-21.496,3.558-30.998
	c34.726-34.641,69.75-69.026,103.901-104.263c11.227-11.59,24.244-17.363,35.365-5.369
	C926.315,370.934,924.184,377.069,920.158,380.755z"/>
<circle cx="486.169" cy="175.744" r="73.755"/>
</svg>
