<?xml version="1.0" encoding="utf-8"?>
<!-- Generator: Adobe Illustrator 24.0.1, SVG Export Plug-In . SVG Version: 6.00 Build 0)  -->
<svg version="1.1" id="Layer_1" xmlns="http://www.w3.org/2000/svg" xmlns:xlink="http://www.w3.org/1999/xlink" x="0px" y="0px"
	 viewBox="0 0 1024 1024" style="enable-background:new 0 0 1024 1024;" xml:space="preserve">
<g>
	<g>
		<path d="M512,1024C229.677,1024,0,794.323,0,512S229.677,0,512,0s512,229.677,512,512S794.323,1024,512,1024z M512,91.632
			C280.206,91.632,91.632,280.206,91.632,512S280.206,932.368,512,932.368S932.368,743.794,932.368,512S743.794,91.632,512,91.632z"
			/>
	</g>
	<g>
		<path d="M380.07,689.746c-11.722,0-23.445-4.474-32.393-13.423c-17.897-17.897-17.897-46.89,0-64.787l263.86-263.86
			c17.897-17.897,46.89-17.897,64.787,0c17.897,17.882,17.897,46.905,0,64.787l-263.86,263.86
			C403.515,685.272,391.793,689.746,380.07,689.746z"/>
	</g>
	<g>
		<path d="M643.93,689.746c-11.722,0-23.445-4.474-32.393-13.423l-263.86-263.86c-17.897-17.882-17.897-46.905,0-64.787
			c17.897-17.897,46.89-17.897,64.787,0l263.86,263.86c17.897,17.897,17.897,46.89,0,64.787
			C667.375,685.272,655.652,689.746,643.93,689.746z"/>
	</g>
</g>
</svg>
