<?xml version="1.0" encoding="utf-8"?>
<!-- Generator: Adobe Illustrator 24.0.1, SVG Export Plug-In . SVG Version: 6.00 Build 0)  -->
<svg version="1.1" id="Layer_1" xmlns="http://www.w3.org/2000/svg" xmlns:xlink="http://www.w3.org/1999/xlink" x="0px" y="0px"
	 viewBox="0 0 1024 1024" style="enable-background:new 0 0 1024 1024;" xml:space="preserve">
<path d="M1023.027,43.707c0-39.583-4.244-43.432-45.675-43.476c-220.7-0.308-441.385-0.308-662.056,0
	c-46.643,0-48.38,2.199-48.666,51.7c-0.33,70.371-1.012,140.961,0.374,211.398c0.55,27.906-4.09,45.411-32.81,60.915
	c-63.224,34.108-87.15,98.233-71.646,169.637c4.772,21.991,6.971,43.08-2.617,65.027c-10.754,24.63-3.716,51.634,14.404,66.434
	c29.402,24.036,37.384,58.672,53.658,88.645c21.397,39.342,6.795,76.286-32.458,96.1c-34.592,17.351-70.635,32.063-104.698,50.337
	c-40.265,21.749-69.953,52.228-82.641,98.959c-15.262,56.055-10.798,64.345,48.27,64.389c198.416,0.161,396.846,0.161,595.292,0
	c9.28,0,18.604,0.638,27.818-0.22c19.154-1.781,28.918-13.436,25.905-32.986c-4.794-31.337-14.514-60.233-37.648-84.335
	c-26.389-27.422-57.374-46.181-92.054-59.991c-32.481-12.953-65.027-25.729-97.463-38.814
	c-19.792-7.983-35.845-19.594-39.935-46.555c19.792-7.301,38.418-3.804,56.692-3.848c159.478-0.308,318.867,0,478.454-0.286
	c46.181,0,49.457-2.903,49.523-45.279C1023.357,488.838,1023.35,266.254,1023.027,43.707z M784.185,144.051
	c7.917-9.456,17.593-13.458,28.412-4.816c9.61,7.675,18.472,16.273,27.445,24.19c23.97-15.394,31.469-42.31,50.403-59.727
	c9.632-8.796,18.098-19.99,32.524-9.544c12.843,9.324,13.019,20.715,3.585,33.118c-20.935,27.62-41.321,55.659-62.564,83.059
	c-11.149,14.404-23.926,15.064-36.989,1.473c-13.942-14.536-28.588-28.588-42.266-43.234
	C777.61,161.116,777.412,152.144,784.185,144.051z M785.153,343.266c14.294-15.855,25.663-6.597,36.813,4.398
	c5.19,5.146,10.578,10.116,17.439,16.669c25.18-17.483,33.118-43.982,52.008-61.42c9.852-9.104,18.736-18.67,32.634-7.499
	c12.909,10.358,10.578,21.595,1.693,33.382c-19.792,26.213-38.308,53.438-59.375,78.639c-16.581,19.968-22.321,19.616-40.353,3.497
	c-12.293-10.995-23.552-23.112-35.185-34.855c-9.214-9.5-17.703-19.462-5.762-32.81L785.153,343.266z M459.908,600.427
	c-15.855,7.103-21.859,19.792-25.135,33.91c-5.212,22.233-17.593,39.737-29.732,58.452c-32.305,49.765-13.854,119.168,39.32,146.525
	c30.787,15.921,64.323,26.895,96.518,40.375c42.618,17.835,85.588,35.185,109.339,79.167c2.727,5.036,4.53,9.676,1.363,17.395
	H54.112c4.068-40.837,30.369-60.387,59.661-76.484c27.422-15.064,56.143-27.73,83.961-42.112
	c16.295-8.423,32.173-17.747,47.808-27.335c24.19-14.822,34.504-36.351,33.712-65.049c-0.946-34.855,1.781-68.567-24.19-98.827
	c-18.033-21.001-13.81-57.506-48.38-69.821c-10.248-3.651-9.94-23.97-4.024-30.083c22.914-23.728,9.786-48.534,4.64-72.064
	c-16.251-74.131,17.944-131.527,91.262-149.867c10.688-2.661,21.155-6.421,31.931-8.488c10.776-2.067,23.332-2.837,30.787,7.389
	c11.787,16.361,27.291,20.935,46.621,24.872c43.586,8.796,70.701,54.449,63.971,100.366c-1.869,12.755-1.803,26.235-6.201,38.066
	c-7.477,20.1-10.358,38.132,3.76,56.89C480.624,578.634,475.566,593.411,459.908,600.427z M432.596,200.347
	c-11.105,0-22.431,0.924-33.206-0.99c-11.479-2.045-21.001-9.236-19.968-22.387c0.99-12.579,10.226-18.868,22.255-20.539
	c5.516-0.558,11.063-0.742,16.603-0.55c92.494,0,184.98,0,277.458,0c5.542,0,11.325-0.55,16.581,0.814
	c11.369,2.991,20.979,9.412,19.968,22.563c-0.99,12.579-10.314,19.792-22.277,20.363c-25.861,1.056-51.766,0.638-77.65,0.726
	c-25.883,0.088-51.788,0-77.694,0C513.984,200.377,473.293,200.377,432.596,200.347z M732.287,378.385
	c0,12.887-9.324,20.627-21.023,21.331c-21.991,1.319-44.268,0.396-66.412,0.396s-44.333,0.924-66.39-0.374
	c-11.721-0.704-21.023-8.466-21.023-21.331c-0.415-11.348,8.447-20.884,19.796-21.3c0.394-0.014,0.789-0.018,1.184-0.009
	c44.26-0.968,88.542-0.968,132.847,0c11.378-0.237,20.793,8.794,21.03,20.172C732.302,377.641,732.299,378.013,732.287,378.385z
	 M713.88,599.547c-23.816,2.045-47.918,0.638-71.91,0.638c-22.123,0-44.333,1.012-66.368-0.506
	c-9.038-0.638-16.911-8.488-18.186-18.362c-1.715-13.194,7.675-23.178,18.384-23.53c46.071-1.473,92.23-1.143,138.344,0
	c8.796,0.198,16.911,8.466,18.164,18.34c1.771,11.057-5.756,21.456-16.813,23.228C714.96,599.44,714.421,599.504,713.88,599.547z
	 M929.391,523.635c-21.529,31.733-42.662,63.773-69.535,91.438c-9.104,9.346-19.352,9.896-28.852,0.66
	c-15.745-15.394-31.359-30.787-46.467-46.797c-7.103-7.543-6.993-16.559,0-24.586c8.115-9.434,17.791-12.997,28.478-4.398
	c9.478,7.697,18.296,16.207,27.225,24.19c25.158-17.395,33.492-45.961,54.273-64.213c8.928-7.829,17.747-13.7,28.852-4.97
	c9.522,7.675,13.744,17.241,6.003,28.676H929.391z"/>
</svg>
