<?xml version="1.0" encoding="utf-8"?>
<!-- Generator: Adobe Illustrator 24.0.1, SVG Export Plug-In . SVG Version: 6.00 Build 0)  -->
<svg version="1.1" id="Layer_1" xmlns="http://www.w3.org/2000/svg" xmlns:xlink="http://www.w3.org/1999/xlink" x="0px" y="0px"
	 viewBox="0 0 1024 1024" style="enable-background:new 0 0 1024 1024;" xml:space="preserve">
<path d="M343.455,100C209.18,100,100,209.18,100,343.455v337.091C100,814.82,209.18,924,343.455,924h337.091
	C814.82,924,924,814.82,924,680.545V343.455C924,209.18,814.82,100,680.545,100H343.455z M736.727,249.818
	c20.6,0,37.455,16.855,37.455,37.455s-16.855,37.455-37.455,37.455s-37.455-16.855-37.455-37.455S716.127,249.818,736.727,249.818z
	 M512,306c113.675,0,206,92.325,206,206s-92.325,206-206,206s-206-92.325-206-206S398.325,306,512,306z M512,343.455
	c-92.887,0-168.545,75.658-168.545,168.545S419.113,680.545,512,680.545S680.545,604.887,680.545,512S604.887,343.455,512,343.455z"
	/>
</svg>
