<?xml version="1.0" encoding="utf-8"?>
<!-- Generator: Adobe Illustrator 24.0.1, SVG Export Plug-In . SVG Version: 6.00 Build 0)  -->
<svg version="1.1" id="Layer_1" xmlns="http://www.w3.org/2000/svg" xmlns:xlink="http://www.w3.org/1999/xlink" x="0px" y="0px"
	 viewBox="0 0 1024 1024" style="enable-background:new 0 0 1024 1024;" xml:space="preserve">
<path d="M512,100c-227.012,0-412,184.988-412,412s184.988,412,412,412s412-184.988,412-412S739.012,100,512,100z M708.936,417.24
	L475.332,650.844c-5.768,5.768-13.596,9.064-21.836,9.064c-8.24,0-16.068-3.296-21.836-9.064L315.064,534.248
	c-11.948-11.948-11.948-31.724,0-43.672c11.948-11.948,31.724-11.948,43.672,0l94.76,94.76l211.768-211.768
	c11.948-11.948,31.724-11.948,43.672,0C720.884,385.516,720.884,404.88,708.936,417.24z"/>
</svg>
