<?xml version="1.0" encoding="utf-8"?>
<!-- Generator: Adobe Illustrator 24.0.1, SVG Export Plug-In . SVG Version: 6.00 Build 0)  -->
<svg version="1.1" id="Layer_1" xmlns="http://www.w3.org/2000/svg" xmlns:xlink="http://www.w3.org/1999/xlink" x="0px" y="0px"
	 viewBox="0 0 1024 1024" style="enable-background:new 0 0 1024 1024;" xml:space="preserve">
<path d="M903.909,806.763L721.661,624.865c-25.942,37.904-59.178,71.138-97.06,97.118l182.247,181.898
	C820.253,917.294,837.823,924,855.368,924c17.568,0,35.138-6.706,48.542-20.119C930.697,877.055,930.697,833.589,903.909,806.763z"
	/>
<path d="M682.042,585.244c31.225-48.983,49.319-107.097,49.319-169.377C731.361,241.683,589.762,100,415.681,100
	c-62.244,0-120.325,18.105-169.277,49.348c-39.003,24.881-72.195,58.092-97.061,97.118C118.117,295.449,100,353.586,100,415.867
	c0,174.162,141.622,315.866,315.681,315.866c62.244,0,120.347-18.128,169.301-49.371
	C623.984,657.481,657.175,624.27,682.042,585.244z M518.048,615.389c-30.699,15.839-65.514,24.789-102.367,24.789
	c-123.595,0-224.18-100.642-224.18-224.311c0-36.874,8.945-71.711,24.775-102.427c21.434-41.612,55.496-75.671,97.082-97.095
	c30.699-15.839,65.492-24.789,102.321-24.789c123.619,0,224.179,100.62,224.179,224.311c0,36.851-8.945,71.665-24.775,102.382
	C593.674,559.861,559.634,593.943,518.048,615.389z"/>
<path d="M377.818,264.8c-68.678,0-124.553,55.908-124.553,124.627c0,9.547,7.735,17.285,17.273,17.285
	c9.54,0,17.273-7.738,17.273-17.285c0-49.659,40.376-90.059,90.006-90.059c9.54,0,17.273-7.738,17.273-17.285
	C395.092,272.538,387.359,264.8,377.818,264.8z"/>
</svg>
