<?xml version="1.0" encoding="utf-8"?>
<!-- Generator: Adobe Illustrator 24.0.1, SVG Export Plug-In . SVG Version: 6.00 Build 0)  -->
<svg version="1.1" id="Layer_1" xmlns="http://www.w3.org/2000/svg" xmlns:xlink="http://www.w3.org/1999/xlink" x="0px" y="0px"
	 viewBox="0 0 1024 1024" style="enable-background:new 0 0 1024 1024;" xml:space="preserve">
<path d="M254.382,377.698c51.519,2.196,95.064-37.789,97.26-89.308c2.128-49.924-35.427-92.674-85.21-96.995
	c-1.363-0.118-2.73-0.207-4.098-0.265c-51.519-2.196-95.064,37.789-97.26,89.308C162.879,331.958,202.863,375.503,254.382,377.698z"
	/>
<path d="M525.144,787.504c89.017-85.754,162.443-169.695,267.415-215.926c19.114-9.076,37.325-19.942,54.389-32.453
	c24.475-17.042,38.797-40.429,22.118-68.893c-16.679-28.464-43.149-29.189-71.069-18.13c-14.107,5.266-27.907,11.318-41.336,18.13
	c-79.227,42.605-158.091,85.573-244.208,132.347l-103.34-126.909c69.256-30.458,130.353-56.021,190.363-84.485
	c32.633-15.229,74.513-32.453,54.389-78.321c-20.124-45.868-56.383-29.733-92.643-15.773
	c-92.281,36.26-185.649,70.344-278.837,104.428c-90.287,33.177-104.791,79.227-45.869,155.191s120.564,149.571,186.918,231.517
	c-62.548,0-118.025-3.626-169.695,1.088S143.512,766.11,100,831.74h411.728c72.519,0,145.038,3.264,217.558-0.906
	c64.724-3.807,133.617,18.493,194.714-29.189C795.641,786.416,666.195,789.68,525.144,787.504z"/>
</svg>
