<?xml version="1.0" encoding="utf-8"?>
<!-- Generator: Adobe Illustrator 24.0.1, SVG Export Plug-In . SVG Version: 6.00 Build 0)  -->
<svg version="1.1" id="Layer_1" xmlns="http://www.w3.org/2000/svg" xmlns:xlink="http://www.w3.org/1999/xlink" x="0px" y="0px"
	 viewBox="0 0 1024 1024" style="enable-background:new 0 0 1024 1024;" xml:space="preserve">
<path style="fill:#010101;" d="M702.409,733.745c-90.755,0-166.615-72.789-219.288-210.535
	c-40.541-105.498-81.696-170.916-162.009-170.916c-88.373-0.136-160.123,71.393-160.26,159.765
	c-0.137,88.372,71.393,160.123,159.765,160.259c42.584,0.066,83.438-16.845,113.517-46.99c12.001-12.001,31.458-12.001,43.459,0
	c12.001,12,12.001,31.457,0,43.458c-86.507,86.327-226.616,86.181-312.943-0.325c-86.328-86.507-86.181-226.616,0.325-312.943
	c41.443-41.357,97.588-64.604,156.137-64.65c138.207,0,191.186,136.825,219.288,210.381c24.57,63.882,78.01,171.069,162.009,171.069
	c88.373,0.08,160.077-71.495,160.158-159.867c0.08-88.373-71.495-160.077-159.868-160.158
	c-39.857-0.036-78.292,14.804-107.784,41.615c-12.722,11.407-32.282,10.341-43.689-2.38c-11.407-12.722-10.341-32.282,2.381-43.689
	l0,0c90.493-82.265,230.54-75.595,312.806,14.897s75.595,230.541-14.897,312.806c-40.76,37.054-93.867,57.586-148.952,57.586
	L702.409,733.745z"/>
<title>icons8-infinitamente-grande-60</title>
</svg>
