<svg id="Layer_1" data-name="Layer 1" xmlns="http://www.w3.org/2000/svg" viewBox="0 0 48.98 40.95"><title>icons8-flexão-de-biceps-50</title><path d="M725.82,382.86v6.86c-1.66,1.71-3.1,3.76-5,5a12,12,0,0,0-4.44,4.91c-4,7.9-9.84,10.71-18.51,9.27-1.59-.26-3.44-.8-4.79-.27-3.25,1.3-5.44-.17-7.38-2.23a24.43,24.43,0,0,1-4.65-6.22,47.92,47.92,0,0,1-4.11-21.94c.21-4.73,3-7.83,7.21-9.65,2.64-1.15,7.63,1.42,9,4.37.84,1.85-.75,4.89-3.62,6.14-1.31.58-3,.41-4.52.58,1.13,4.36,4.81,6.71,7.58,10.45,2.83-4.86,7.18-5.44,11.53-5.51.31-.89.54-1.5.75-2.12,1.57-4.76,5-7.13,9.86-7.45s8.12,1.9,10.15,6.19A15.85,15.85,0,0,0,725.82,382.86Z" transform="translate(-676.84 -368.34)"/></svg>