<svg width="42" height="43" viewBox="0 0 42 43" fill="none" xmlns="http://www.w3.org/2000/svg">
<path d="M32.4186 12.6548C32.277 12.6346 32.1354 12.6346 31.9938 12.6548C28.858 12.5537 26.3696 9.98438 26.3696 6.82838C26.3696 3.61169 28.9794 0.981689 32.2163 0.981689C35.433 0.981689 38.063 3.59146 38.063 6.82838C38.0428 9.98438 35.5544 12.5537 32.4186 12.6548Z" fill="#F79517"/>
<path d="M39.0192 26.6756C36.7533 28.1929 33.5771 28.7593 30.6436 28.3749C31.4124 26.716 31.817 24.875 31.8372 22.9329C31.8372 20.9098 31.3922 18.9879 30.5425 17.3087C33.5366 16.9041 36.7129 17.4706 38.9989 18.9879C42.1954 21.0919 42.1954 24.5513 39.0192 26.6756Z" fill="#F79517"/>
<path d="M9.98499 12.6548C10.1266 12.6346 10.2682 12.6346 10.4098 12.6548C13.5456 12.5537 16.034 9.98438 16.034 6.82838C16.034 3.59146 13.4242 0.981689 10.1873 0.981689C6.97061 0.981689 4.36084 3.59146 4.36084 6.82838C4.36084 9.98438 6.84922 12.5537 9.98499 12.6548Z" fill="#F79517"/>
<path d="M10.2097 22.9333C10.2097 24.8956 10.6346 26.7569 11.4034 28.436C8.55082 28.7395 5.5769 28.1326 3.39197 26.6962C0.195514 24.572 0.195514 21.1125 3.39197 18.9883C5.55666 17.5317 8.61151 16.9449 11.4843 17.2687C10.6548 18.968 10.2097 20.89 10.2097 22.9333Z" fill="#F79517"/>
<path d="M21.4778 29.0417C21.3159 29.0215 21.1339 29.0215 20.9518 29.0417C17.2293 28.9203 14.2554 25.8655 14.2554 22.1026C14.2756 18.2587 17.3709 15.1432 21.235 15.1432C25.0789 15.1432 28.1944 18.2587 28.1944 22.1026C28.1742 25.8655 25.2205 28.9203 21.4778 29.0417Z" fill="#F79517"/>
<path d="M14.9025 33.2308C11.8476 35.2741 11.8476 38.6324 14.9025 40.6555C18.3822 42.982 24.0873 42.982 27.567 40.6555C30.6218 38.6122 30.6218 35.2538 27.567 33.2308C24.1075 30.9042 18.4024 30.9042 14.9025 33.2308Z" fill="#F79517"/>
</svg>
