<svg xmlns="http://www.w3.org/2000/svg" viewBox="0 0 80.95 84.09"><path d="M0 71.84c0-7.15 2.91-12.3 9.45-15.06a87.81 87.81 0 0 1 9.86-3.44c5.48-1.58 9.13-4.26 7.09-11.44-3-2.06-5.3-6.28-6.44-9.9-2.33-7.47-3.61-15.64 0-23.32C23.03 2.17 28.86-.02 35.6 0c12.36 0 19.66 9.91 17.92 22.11-.71 5-.54 9.78-3.84 13.89a21 21 0 0 1-2.38 3.14c-13.88 11.63-15.61 15.77-13.29 32.7z"/><path d="M78.72 53.62a20.77 20.77 0 0 0-4.26-5.77c-.13-.14-.27-.27-.4-.39a21.15 21.15 0 0 0-8.9-4.81c-.22-.05-.45-.11-.68-.15a20.35 20.35 0 0 0-4.58-.51 20.79 20.79 0 0 0-5.72.79l-.54.16a21 21 0 0 0-9 5.64 20.92 20.92 0 0 0-5.7 13.52v1.08c0 .67 0 1.33.11 2 0 .23 0 .46.08.68a21 21 0 0 0 13.8 17 20.79 20.79 0 0 0 6.34 1.2h1.44a20.61 20.61 0 0 0 8.07-1.91 21 21 0 0 0 10-28.54zm-15.3 12.72c-2 2.47 2 8.65-3.82 8.37-4.69-.23-1.65-5.56-2.94-8.23-2.75-1.68-8.45 1.86-8.38-3.54.06-5 5.39-1.81 8.34-3.39 1.35-2.77-1.77-8.08 3.17-8.18 5.45-.11 1.94 5.58 3.5 8.27 2.66 1.66 8.37-1.91 8.3 3.49-.06 4.99-5.34 1.94-8.17 3.21z"/></svg>