<svg data-name="Layer 1" xmlns="http://www.w3.org/2000/svg" viewBox="0 0 244.86 244.65"><path d="M213.52 192.17V52.76c-15 15-28.64 27.55-40.9 41.34-8.52 9.6-13.35 4.81-19.29-2-5.08-5.86-13.48-9.69-3.31-19.28 22.23-20.95 43.43-43 65-64.62 5.6-5.61 11.52-10.61 20.07-6.73 8.09 3.67 9.7 10.74 9.68 19q-.21 101.25 0 202.5c0 8.88-1.15 16.92-10.24 20.57-9.52 3.83-15.42-2.86-21.33-8.78q-79-79.05-158-158.11c-7.14-7.15-14.06-14.51-23.25-24v138.62c14.21-14.23 28-26.67 40.1-40.56 9.76-11.2 14.16-2.64 20.78 2.91 7.92 6.63 9.07 11.51.73 19.42-21.71 20.58-42.5 42.12-63.66 63.29-5.57 5.57-11.48 10.77-20.05 7.06-8.09-3.51-10-10.49-9.94-18.84q.24-102.21 0-204.41c0-8.42 2-15.35 10-18.84 9.55-4.16 15.45 2.48 21.35 8.39z"/></svg>