<svg width="216" height="204" viewBox="0 0 216 204" fill="none" xmlns="http://www.w3.org/2000/svg">
<path d="M59.9194 58.5583L39.3336 37.9724C39.3336 42.4024 39.1726 46.2697 39.3985 50.1163C39.558 52.792 38.1375 52.7979 36.2548 52.6694C34.6393 52.5543 32.8334 53.2291 32.919 50.3112C33.108 43.9351 32.9825 37.5486 32.9751 31.171C32.9737 29.5157 33.1095 27.9032 34.945 27.2136C36.6815 26.5609 37.9632 27.3672 39.18 28.5898C49.1266 38.5779 59.094 48.5452 69.082 58.4918C70.3932 59.8031 71.4106 61.1601 70.6073 63.0414C69.7671 65.0127 67.908 64.896 66.1612 64.8946C50.6023 64.8896 35.0429 64.8842 19.4831 64.8783C17.3729 64.8768 15.2643 64.8119 12.5059 64.7676L32.9751 85.2368C32.9722 81.0372 33.1715 77.164 32.9072 73.3262C32.6946 70.2311 34.6083 70.8454 36.4054 70.6874C38.5539 70.4969 39.4443 71.0477 39.3808 73.4473C39.2139 79.692 39.3247 85.9426 39.3262 92.1932C39.3262 93.8382 39.2213 95.4788 37.408 96.1964C35.6951 96.8727 34.3824 96.1241 33.1582 94.8822C23.12 84.7967 13.0587 74.7354 2.9742 64.6982C1.73087 63.4548 1.00289 62.1362 1.66885 60.4395C2.46476 58.4151 4.31647 58.5243 6.06038 58.5258L59.9194 58.5583Z" fill="black"/>
<path d="M95.7134 111.397L75.1275 90.8109C75.1275 95.2409 74.9665 99.1082 75.1925 102.955C75.3519 105.631 73.9314 105.636 72.0487 105.508C70.4333 105.393 68.6273 106.068 68.713 103.15C68.902 96.7736 68.7765 90.3871 68.7691 84.0095C68.7676 82.3542 68.9035 80.7417 70.7389 80.0521C72.4754 79.3994 73.7572 80.2057 74.9739 81.4283C84.9206 91.4164 94.8879 101.384 104.876 111.33C106.187 112.642 107.205 113.999 106.401 115.88C105.561 117.851 103.702 117.735 101.955 117.733C86.3962 117.728 70.8369 117.723 55.277 117.717C53.1669 117.715 51.0582 117.65 48.2999 117.606L68.7691 138.075C68.7661 133.876 68.9655 130.002 68.7012 126.165C68.4885 123.07 70.4022 123.684 72.1993 123.526C74.3478 123.335 75.2382 123.886 75.1747 126.286C75.0079 132.53 75.1186 138.781 75.1201 145.032C75.1201 146.677 75.0153 148.317 73.202 149.035C71.4891 149.711 70.1763 148.963 68.9522 147.721C58.914 137.635 48.8526 127.574 38.7681 117.537C37.5248 116.293 36.7968 114.975 37.4628 113.278C38.2587 111.254 40.1104 111.363 41.8543 111.364L95.7134 111.397Z" fill="black"/>
<path d="M131.158 164.235L110.572 143.65C110.572 148.079 110.411 151.947 110.637 155.793C110.797 158.469 109.376 158.475 107.494 158.347C105.878 158.231 104.072 158.906 104.158 155.988C104.347 149.612 104.221 143.226 104.214 136.848C104.212 135.193 104.348 133.58 106.184 132.891C107.92 132.238 109.202 133.044 110.419 134.267C120.365 144.255 130.333 154.222 140.321 164.169C141.632 165.48 142.649 166.837 141.846 168.718C141.006 170.69 139.147 170.573 137.4 170.572C121.841 170.567 106.282 170.561 90.7218 170.555C88.6117 170.554 86.5031 170.489 83.7447 170.445L104.214 190.914C104.211 186.714 104.41 182.841 104.146 179.003C103.933 175.908 105.847 176.523 107.644 176.365C109.793 176.174 110.683 176.725 110.62 179.124C110.453 185.369 110.563 191.62 110.565 197.87C110.565 199.515 110.46 201.156 108.647 201.874C106.934 202.55 105.621 201.801 104.397 200.559C94.3588 190.474 84.2975 180.413 74.213 170.375C72.9696 169.132 72.2417 167.813 72.9076 166.117C73.7035 164.092 75.5552 164.201 77.2991 164.203L131.158 164.235Z" fill="black"/>
<path d="M167.301 99.4655L146.715 78.8797C146.715 83.3096 146.554 87.1769 146.78 91.0236C146.939 93.6992 145.519 93.7051 143.636 93.5767C142.021 93.4615 140.215 94.1363 140.3 91.2185C140.489 84.8423 140.364 78.4559 140.356 72.0782C140.355 70.4229 140.491 68.8104 142.326 68.1208C144.063 67.4682 145.345 68.2744 146.561 69.4971C156.508 79.4851 166.475 89.4524 176.463 99.3991C177.775 100.71 178.792 102.067 177.989 103.949C177.148 105.92 175.289 105.803 173.543 105.802C157.984 105.797 142.424 105.791 126.864 105.786C124.754 105.784 122.646 105.719 119.887 105.675L140.356 126.144C140.354 121.944 140.553 118.071 140.289 114.233C140.076 111.138 141.99 111.753 143.787 111.595C145.935 111.404 146.826 111.955 146.762 114.355C146.595 120.599 146.706 126.85 146.708 133.1C146.708 134.745 146.603 136.386 144.789 137.104C143.076 137.78 141.764 137.031 140.54 135.789C130.501 125.704 120.44 115.643 110.356 105.605C109.112 104.362 108.384 103.043 109.05 101.347C109.846 99.3223 111.698 99.4316 113.442 99.433L167.301 99.4655Z" fill="black"/>
<path d="M131.158 46.627L110.572 26.0412C110.572 30.4711 110.411 34.3384 110.637 38.1851C110.797 40.8607 109.376 40.8666 107.494 40.7382C105.878 40.623 104.072 41.2978 104.158 38.38C104.347 32.0038 104.221 25.6174 104.214 19.2397C104.212 17.5844 104.348 15.9719 106.184 15.2823C107.92 14.6297 109.202 15.4359 110.419 16.6586C120.365 26.6466 130.333 36.6139 140.321 46.5606C141.632 47.8718 142.649 49.2289 141.846 51.1101C141.006 53.0814 139.147 52.9648 137.4 52.9633C121.841 52.9584 106.282 52.953 90.7218 52.947C88.6117 52.9456 86.5031 52.8806 83.7447 52.8363L104.214 73.3055C104.211 69.1059 104.41 65.2327 104.146 61.3949C103.933 58.2999 105.847 58.9142 107.644 58.7562C109.793 58.5657 110.683 59.1165 110.62 61.516C110.453 67.7607 110.563 74.0113 110.565 80.262C110.565 81.9069 110.46 83.5475 108.647 84.2651C106.934 84.9414 105.621 84.1928 104.397 82.9509C94.3588 72.8655 84.2975 62.8041 74.213 52.7669C72.9696 51.5236 72.2417 50.2049 72.9076 48.5083C73.7035 46.4838 75.5552 46.5931 77.2991 46.5945L131.158 46.627Z" fill="black"/>
<path d="M203.095 32.9913L182.509 12.4054C182.509 16.8353 182.348 20.7027 182.574 24.5493C182.733 27.225 181.313 27.2309 179.43 27.1024C177.815 26.9872 176.009 27.6621 176.094 24.7442C176.283 18.3681 176.158 11.9816 176.15 5.604C176.149 3.94869 176.285 2.33619 178.12 1.6466C179.857 0.993923 181.139 1.80017 182.355 3.02283C192.302 13.0108 202.269 22.9782 212.257 32.9248C213.569 34.2361 214.586 35.5931 213.783 37.4744C212.942 39.4457 211.083 39.329 209.336 39.3275C193.778 39.3226 178.218 39.3172 162.658 39.3113C160.548 39.3098 158.44 39.2449 155.681 39.2006L176.15 59.6698C176.147 55.4702 176.347 51.597 176.083 47.7592C175.87 44.6641 177.784 45.2784 179.581 45.1204C181.729 44.9299 182.62 45.4807 182.556 47.8803C182.389 54.125 182.5 60.3756 182.501 66.6262C182.501 68.2712 182.397 69.9117 180.583 70.6294C178.87 71.3057 177.558 70.557 176.334 69.3152C166.295 59.2297 156.234 49.1684 146.149 39.1312C144.906 37.8878 144.178 36.5692 144.844 34.8725C145.64 32.848 147.492 32.9573 149.236 32.9588L203.095 32.9913Z" fill="black"/>
</svg>
