<svg width="45" height="44" viewBox="0 0 45 44" fill="none" xmlns="http://www.w3.org/2000/svg">
<path d="M36.4408 16.3742C36.4408 19.3208 35.567 22.0236 34.0632 24.2793C31.8685 27.5307 28.3935 29.8271 24.3495 30.4164C23.6586 30.5383 22.9474 30.5993 22.2158 30.5993C21.4842 30.5993 20.773 30.5383 20.082 30.4164C16.038 29.8271 12.5631 27.5307 10.3683 24.2793C8.86455 22.0236 7.99072 19.3208 7.99072 16.3742C7.99072 8.5098 14.3514 2.14917 22.2158 2.14917C30.0802 2.14917 36.4408 8.5098 36.4408 16.3742Z" stroke="#F79517" stroke-width="3" stroke-linecap="round" stroke-linejoin="round"/>
<path d="M41.0134 35.6188L37.6603 36.4113C36.9084 36.5942 36.3191 37.1632 36.1565 37.9151L35.4453 40.9024C35.0592 42.5281 32.9864 43.0158 31.9093 41.7355L22.216 30.5993L12.5225 41.7559C11.4455 43.0361 9.37269 42.5484 8.98658 40.9227L8.27533 37.9354C8.09243 37.1835 7.50311 36.5942 6.77154 36.4316L3.41849 35.6391C1.87405 35.2733 1.32537 33.3428 2.44305 32.2251L10.3684 24.2997C12.5632 27.5511 16.0381 29.8475 20.0822 30.4368C20.7731 30.5587 21.4844 30.6197 22.216 30.6197C22.9475 30.6197 23.6588 30.5587 24.3497 30.4368C28.3937 29.8475 31.8687 27.5511 34.0634 24.2997L41.9888 32.2251C43.1065 33.3224 42.5578 35.253 41.0134 35.6188Z" stroke="#F79517" stroke-width="3" stroke-linecap="round" stroke-linejoin="round"/>
<path d="M23.3941 10.2371L24.5931 12.635C24.7556 12.9602 25.1824 13.2853 25.5685 13.3463L27.7429 13.7121C29.1248 13.9356 29.4499 14.9517 28.4542 15.9475L26.7675 17.6341C26.483 17.9186 26.3204 18.4673 26.422 18.8738L26.9097 20.9669C27.2958 22.6129 26.422 23.2632 24.9589 22.3894L22.9267 21.1904C22.5609 20.9669 21.9513 20.9669 21.5855 21.1904L19.5533 22.3894C18.0901 23.2429 17.2163 22.6129 17.6024 20.9669L18.0901 18.8738C18.1715 18.4876 18.0292 17.9186 17.7447 17.6341L16.058 15.9475C15.0622 14.9517 15.3874 13.9559 16.7692 13.7121L18.9437 13.3463C19.3095 13.2853 19.7362 12.9602 19.8988 12.635L21.0978 10.2371C21.6871 8.93654 22.7438 8.93654 23.3941 10.2371Z" stroke="#F79517" stroke-width="3" stroke-linecap="round" stroke-linejoin="round"/>
</svg>
