<svg height="800" width="800" version="1.1" id="_x32_" xmlns="http://www.w3.org/2000/svg" viewBox="0 0 512 512" xml:space="preserve"><style>.st0{fill:#000}</style><path class="st0" d="M172.625 102.4c-42.674 0-77.392 34.739-77.392 77.438 0 5.932 4.806 10.74 10.733 10.74 5.928 0 10.733-4.808 10.733-10.74 0-30.856 25.088-55.959 55.926-55.959 5.928 0 10.733-4.808 10.733-10.74 0-5.931-4.805-10.739-10.733-10.739z"/><path class="st0" d="M361.657 301.511c19.402-30.436 30.645-66.546 30.645-105.244C392.302 88.036 304.318 0 196.151 0c-38.676 0-74.765 11.25-105.182 30.663a197.588 197.588 0 0 0-60.31 60.345C11.257 121.444 0 157.568 0 196.267c0 108.217 87.998 196.266 196.151 196.266 38.676 0 74.779-11.264 105.197-30.677a197.596 197.596 0 0 0 60.309-60.345zm-101.899 18.731c-19.075 9.842-40.708 15.403-63.607 15.403-76.797 0-139.296-62.535-139.296-139.378 0-22.912 5.558-44.558 15.394-63.644 13.318-25.856 34.483-47.019 60.323-60.331 19.075-9.842 40.694-15.403 63.578-15.403 76.812 0 139.296 62.521 139.296 139.378 0 22.898-5.558 44.53-15.394 63.616-13.303 25.856-34.454 47.033-60.294 60.359zM499.516 439.154 386.275 326.13c-16.119 23.552-36.771 44.202-60.309 60.345l113.241 113.024c8.329 8.334 19.246 12.501 30.148 12.501 10.916 0 21.833-4.167 30.162-12.501 16.644-16.669 16.644-43.677-.001-60.345z"/></svg>