<svg xmlns="http://www.w3.org/2000/svg" viewBox="0 0 80 64.02"><path d="M0 15.01c12.07 7.53 23.31 14.3 34.27 21.51 4 2.65 7.13 2.9 11.25.15 9.68-6.46 19.68-12.45 29.56-18.61 1.36-.85 2.79-1.59 4.81-2.72 0 14.23.21 27.81-.11 41.38-.11 4.57-3.44 7.19-8.06 7.21q-31.71.12-63.42 0c-4.87 0-8.16-3-8.23-7.59C-.08 42.92 0 29.47 0 15.01z"/><path d="M.09 7.01c1.37-5.09 4.4-7 9-7h62c4.56 0 7.57 2 8.89 7.05q-10.2 6.4-20.54 12.88c-5.5 3.44-10.94 7-16.57 10.21-1.28.74-3.63 1.14-4.74.46C25.39 22.94 12.89 15.01.09 7.01z"/></svg>