<svg data-name="Layer 1" xmlns="http://www.w3.org/2000/svg" viewBox="0 0 42.49 45.84"><path d="M674.38 382.4c-.54 3-.5 5.63-1.5 7.75a15.22 15.22 0 0 0-.52 12.06c.65 1.87.26 4.76 3.45 4.63 2-.08 2.35-1.7 1.3-5.81-.71-2.78-1.43-5.52 1.09-7.6 1.89 2.84 3.68 5.75 5.71 8.49 1.19 1.61 2.38 4.33 5 2.34 2.37-1.78.2-3.54-.78-5.14-.87-1.42-2-2.7-2.81-4.13a7.31 7.31 0 0 1-1.26-3.16c-.14-4.72-.06-9.46-.06-14.6l4.71 2.82a54.81 54.81 0 0 0 6.71-2.48 3.09 3.09 0 0 0 1.2-2.78 3.21 3.21 0 0 0-2.65-1.56c-1.59.13-3.13.93-4.94 1.52-2.68-3.26-5.86-3.72-10.09-2.93-4.52.85-6.78 3.62-8.8 6.88a30.39 30.39 0 0 0-5.76-.49 3.45 3.45 0 0 0-2.18 2.18 2.66 2.66 0 0 0 1.42 2.22c3.38.52 6.66 2.39 10.76-.21zm23.86 7.22c-1.48.21-2.27.3-3.06.43-2.09.36-3.41 1.44-2.91 3.72.4 1.84 2.91 2.81 4.94 2a4.29 4.29 0 0 0 2.81-4.28c0-2 0-4 .08-6a3.67 3.67 0 0 1 .48-1.18l4.11.54v-3.57l-6.45-1.4zm-20.75-19.68a4.47 4.47 0 1 0-4.47-4.47 4.63 4.63 0 0 0 4.47 4.47z" transform="translate(-662.2 -361)" style="fill:#fff"/><path d="M12.18 21.4c-4.1 2.63-7.43.73-10.74.21a2.66 2.66 0 0 1-1.42-2.22 3.45 3.45 0 0 1 2.18-2.18 30.39 30.39 0 0 1 5.76.49c2-3.26 4.28-6 8.8-6.88 4.23-.79 7.41-.33 10.09 2.93 1.81-.59 3.35-1.39 4.94-1.52a3.21 3.21 0 0 1 2.65 1.56 3.09 3.09 0 0 1-1.2 2.78 54.81 54.81 0 0 1-6.71 2.48l-4.73-2.82c0 5.14-.08 9.88.06 14.6a7.31 7.31 0 0 0 1.26 3.16c.85 1.43 1.94 2.71 2.81 4.13 1 1.6 3.15 3.36.78 5.14-2.64 2-3.83-.73-5-2.34-2-2.74-3.82-5.65-5.71-8.49-2.52 2.08-1.8 4.82-1.09 7.6 1 4.11.7 5.73-1.3 5.81-3.19.13-2.8-2.76-3.45-4.63a15.22 15.22 0 0 1 .52-12.06c1-2.15.96-4.74 1.5-7.75z"/><path d="M36.04 28.62v-9.73l6.45 1.4v3.57l-4.11-.54a3.67 3.67 0 0 0-.48 1.18c-.07 2-.09 4-.08 6a4.29 4.29 0 0 1-2.81 4.28c-2 .83-4.54-.14-4.94-2-.5-2.28.82-3.36 2.91-3.72.82-.14 1.58-.23 3.06-.44zM15.29 8.94a4.47 4.47 0 1 1 4.46-4.47 4.61 4.61 0 0 1-4.46 4.47z"/></svg>