<svg width="218" height="205" viewBox="0 0 218 205" fill="none" xmlns="http://www.w3.org/2000/svg">
<path d="M60.3522 58.9812L39.6176 38.2467C39.6176 42.7086 39.4555 46.6039 39.6831 50.4783C39.8437 53.1733 38.4129 53.1792 36.5166 53.0498C34.8895 52.9338 33.0705 53.6135 33.1568 50.6746C33.3472 44.2524 33.2207 37.8198 33.2133 31.3961C33.2118 29.7289 33.3486 28.1047 35.1974 27.4102C36.9464 26.7528 38.2374 27.5648 39.463 28.7963C49.4815 38.8565 59.5208 48.8958 69.5809 58.9143C70.9016 60.235 71.9264 61.6019 71.1173 63.4967C70.271 65.4822 68.3985 65.3648 66.639 65.3633C50.9678 65.3583 35.296 65.3529 19.6238 65.3469C17.4984 65.3454 15.3745 65.28 12.5962 65.2354L33.2133 85.8524C33.2103 81.6225 33.4111 77.7213 33.1449 73.8558C32.9307 70.7384 34.8583 71.3571 36.6683 71.198C38.8323 71.0061 39.7292 71.5609 39.6652 73.9777C39.4972 80.2676 39.6087 86.5633 39.6102 92.8591C39.6102 94.516 39.5046 96.1684 37.6782 96.8912C35.9529 97.5724 34.6307 96.8183 33.3977 95.5675C23.287 85.4092 13.153 75.2752 2.99568 65.1654C1.74337 63.9131 1.01013 62.585 1.68091 60.8761C2.48256 58.837 4.34764 58.947 6.10415 58.9485L60.3522 58.9812Z" fill="white"/>
<path d="M96.4044 112.202L75.6699 91.4671C75.6699 95.9291 75.5078 99.8243 75.7353 103.699C75.8959 106.394 74.4652 106.4 72.5688 106.27C70.9417 106.154 69.1228 106.834 69.209 103.895C69.3994 97.4729 69.273 91.0403 69.2655 84.6166C69.2641 82.9493 69.4009 81.3252 71.2496 80.6306C72.9987 79.9732 74.2897 80.7853 75.5152 82.0168C85.5337 92.0769 95.573 102.116 105.633 112.135C106.954 113.455 107.979 114.822 107.17 116.717C106.323 118.703 104.451 118.585 102.691 118.584C87.02 118.579 71.3483 118.573 55.676 118.567C53.5507 118.566 51.4268 118.5 48.6485 118.456L69.2655 139.073C69.2626 134.843 69.4634 130.942 69.1971 127.076C68.983 123.959 70.9105 124.578 72.7206 124.418C74.8846 124.227 75.7814 124.781 75.7175 127.198C75.5494 133.488 75.661 139.784 75.6624 146.08C75.6624 147.736 75.5568 149.389 73.7304 150.112C72.0052 150.793 70.6829 150.039 69.45 148.788C59.3393 138.63 49.2052 128.496 39.0479 118.386C37.7956 117.134 37.0624 115.805 37.7332 114.097C38.5348 112.057 40.3999 112.167 42.1564 112.169L96.4044 112.202Z" fill="white"/>
<path d="M132.106 165.422L111.371 144.687C111.371 149.149 111.209 153.045 111.436 156.919C111.597 159.614 110.166 159.62 108.27 159.491C106.643 159.375 104.824 160.054 104.91 157.115C105.101 150.693 104.974 144.261 104.967 137.837C104.965 136.17 105.102 134.545 106.951 133.851C108.7 133.193 109.991 134.006 111.216 135.237C121.235 145.297 131.274 155.336 141.334 165.355C142.655 166.676 143.68 168.043 142.871 169.937C142.024 171.923 140.152 171.805 138.392 171.804C122.721 171.799 107.049 171.794 91.3772 171.788C89.2518 171.786 87.128 171.721 84.3497 171.676L104.967 192.293C104.964 188.063 105.165 184.162 104.898 180.296C104.684 177.179 106.612 177.798 108.422 177.639C110.586 177.447 111.483 178.002 111.419 180.418C111.251 186.708 111.362 193.004 111.364 199.3C111.364 200.957 111.258 202.609 109.432 203.332C107.706 204.013 106.384 203.259 105.151 202.008C95.0404 191.85 84.9064 181.716 74.7491 171.606C73.4968 170.354 72.7635 169.026 73.4343 167.317C74.236 165.278 76.1011 165.388 77.8576 165.389L132.106 165.422Z" fill="white"/>
<path d="M168.509 100.184L147.775 79.4496C147.775 83.9115 147.613 87.8067 147.84 91.6812C148.001 94.3762 146.57 94.3821 144.674 94.2527C143.047 94.1367 141.228 94.8164 141.314 91.8775C141.504 85.4553 141.378 79.0227 141.371 72.599C141.369 70.9318 141.506 69.3076 143.355 68.613C145.104 67.9557 146.395 68.7677 147.62 69.9992C157.639 80.0594 167.678 90.0987 177.738 100.117C179.059 101.438 180.084 102.805 179.275 104.7C178.428 106.685 176.556 106.568 174.796 106.566C159.125 106.561 143.453 106.556 127.781 106.55C125.656 106.548 123.532 106.483 120.753 106.438L141.371 127.055C141.368 122.825 141.568 118.924 141.302 115.059C141.088 111.941 143.015 112.56 144.826 112.401C146.99 112.209 147.886 112.764 147.822 115.181C147.654 121.47 147.766 127.766 147.767 134.062C147.767 135.719 147.662 137.371 145.835 138.094C144.11 138.775 142.788 138.021 141.555 136.77C131.444 126.612 121.31 116.478 111.153 106.368C109.901 105.116 109.167 103.788 109.838 102.079C110.64 100.04 112.505 100.15 114.261 100.151L168.509 100.184Z" fill="white"/>
<path d="M132.106 46.9639L111.371 26.2294C111.371 30.6913 111.209 34.5865 111.436 38.461C111.597 41.156 110.166 41.1619 108.27 41.0325C106.643 40.9165 104.824 41.5962 104.91 38.6573C105.101 32.2351 104.974 25.8025 104.967 19.3788C104.965 17.7115 105.102 16.0874 106.951 15.3928C108.7 14.7354 109.991 15.5475 111.216 16.779C121.235 26.8391 131.274 36.8785 141.334 46.897C142.655 48.2177 143.68 49.5845 142.871 51.4794C142.024 53.4649 140.152 53.3474 138.392 53.3459C122.721 53.341 107.049 53.3355 91.3772 53.3296C89.2518 53.3281 87.128 53.2626 84.3497 53.218L104.967 73.8351C104.964 69.6052 105.165 65.704 104.898 61.8384C104.684 58.7211 106.612 59.3398 108.422 59.1806C110.586 58.9888 111.483 59.5435 111.419 61.9604C111.251 68.2502 111.362 74.546 111.364 80.8418C111.364 82.4986 111.258 84.151 109.432 84.8739C107.706 85.555 106.384 84.801 105.151 83.5502C95.0404 73.3918 84.9064 63.2578 74.7491 53.1481C73.4968 51.8958 72.7635 50.5676 73.4343 48.8587C74.236 46.8196 76.1011 46.9297 77.8576 46.9312L132.106 46.9639Z" fill="white"/>
<path d="M204.562 33.2295L183.827 12.495C183.827 16.9569 183.665 20.8522 183.893 24.7266C184.053 27.4216 182.622 27.4275 180.726 27.2981C179.099 27.1821 177.28 27.8618 177.366 24.9229C177.557 18.5007 177.43 12.0681 177.423 5.64444C177.421 3.97717 177.558 2.35303 179.407 1.65845C181.156 1.00106 182.447 1.81314 183.672 3.04463C193.691 13.1048 203.73 23.1441 213.79 33.1626C215.111 34.4833 216.136 35.8502 215.327 37.745C214.481 39.7305 212.608 39.613 210.848 39.6116C195.177 39.6066 179.505 39.6011 163.833 39.5952C161.708 39.5937 159.584 39.5283 156.806 39.4836L177.423 60.1007C177.42 55.8708 177.621 51.9696 177.354 48.1041C177.14 44.9867 179.068 45.6054 180.878 45.4463C183.042 45.2544 183.939 45.8092 183.875 48.226C183.707 54.5159 183.818 60.8116 183.82 67.1074C183.82 68.7643 183.714 70.4166 181.888 71.1395C180.162 71.8207 178.84 71.0666 177.607 69.8158C167.496 59.6575 157.362 49.5235 147.205 39.4137C145.953 38.1614 145.22 36.8333 145.89 35.1243C146.692 33.0852 148.557 33.1953 150.314 33.1968L204.562 33.2295Z" fill="white"/>
</svg>
