<svg xmlns="http://www.w3.org/2000/svg" viewBox="0 0 386.8 384.86"><circle cx="181.27" cy="34.62" r="34.62"/><path d="M384.98 130.85c-17.47 15.94-23.66 31.51-27.67 52.26-9.2 47.61-20.17 94.87-30.36 142 22.07 35.1 8.26 50.2-8.46 57.5-15.93 6.95-34.34-2.51-39.87-19.48-6.37-19.53 5.9-35.16 33.41-41.75q15.3-71.38 30.86-144c-10.64.6-12.89 16.16-25 11.81-5.63-5.55-2.8-10.09 1.67-14.55 16.3-16.26 32.74-32.4 48.77-48.94 5.27-5.44 11.38-8.15 16.6-2.52 2.94 3.06 1.94 5.94.05 7.67zM258.07 130.88c-12.71-.1-25.42 0-37.91 0-7.09-11.35-13.41-21.7-20-31.92-16.12-25.12-38.54-33.81-67.6-27.66-40.52 8.57-75.16 24.09-87.52 68.42-.5 1.8-8.65 26.7 3 33.21 12.66 7 22.08.8 28.42-10.81 6.72-12.31 13.18-24.75 19.6-36.83 8.37-2.43 15-7.72 23.52-7.3 0 2.11.31 3.45 0 4.58-4.37 14-8.85 28-13.29 42-7.83 24.7-5 33.58 16.13 49.26 15.95 11.82 32.03 23.41 48.34 35.41 9.18 27.43 13.74 54.33 25.26 79.92-56.46 3.17-111.46 6.29-166.47 9.32-19.38 1.07-29.3 8.66-29.54 22.91-.24 15.12 10.35 23.41 30.72 23.44q98.13.15 196.27 0h46.45c-15-20-14-38.77-4.06-58.34h-46.27c10.48-26.93-8.06-49.3-10.83-73.82-3.28-28.94-24.76-43.13-45.33-58.77 5-16.5 9.74-31.88 16-52.44 8.7 27.33 26.13 29.85 46.14 28 9.54-.87 19.23-.21 28.85-.14 12.55.1 22.15-5 22.61-18.14.51-14.05-8.99-20.2-22.49-20.3zM22.76 371.51a9.8 9.8 0 1 1 9.79-9.79 9.79 9.79 0 0 1-9.79 9.79z"/><path d="m90.41 236.15 11.28-19.91 28.25 22.68c-3.31 7.56-6.34 14.36-9.28 21.19-4.29 10-11.61 14.61-22.62 13.75-19.75-1.54-39.53-2.76-59.29-4.16-12.23-.87-19.39-8-18.67-19.74.75-12.17 9.64-17.28 21.47-16.69 15.92.77 31.83 1.85 48.86 2.88z"/></svg>