<svg id="Layer_1" data-name="Layer 1" xmlns="http://www.w3.org/2000/svg" viewBox="0 0 72.06 71.75"><title>icons8-gym-90</title><path d="M717.21,372c-4.14-2.16-4.46-5.73-4.11-9.71a39.72,39.72,0,0,0,0-5,3.17,3.17,0,0,0-3.53-3.34c-1.31,0-2.65-.25-3.9.47-2.44,1.4-1,4.15-1.95,6.46-5.9-4.8-11.53-9.2-16.92-13.87-2.63-2.28-4.6-2.4-7.33-.07-7.34,6.27-14.92,12.28-22.4,18.39-2.84,2.32-5.72,4.6-8.52,6.95-1,.88-1.88,2-1.34,3.49a3.14,3.14,0,0,0,3.06,2.16c.8,0,1.6.07,2.74.13,0,10.6,0,20.59,0,30.58,0,6.46,1.86,8.33,8.27,8.34q21.76,0,43.54,0c6.4,0,8.28-1.9,8.3-8.32,0-10.14,0-20.29,0-30.41,2.28-.57,4.87.23,5.8-2.47A3.06,3.06,0,0,0,717.21,372Zm-16.35,16.62c-3.29,2.3-3.67,6.46-6.27,9.18-1.6,1.67-3.36.9-5.13,1.19-.85-2.9,0-5.76-.58-8.76H677.21v8.39c-3.18.78-4.75-.17-6.83-2.47s-1.7-6.26-5.16-7.64c-.39-.15-.51-2.84,0-3.22,3.3-2.29,3.63-6.49,6.28-9.16,1.58-1.6,3.31-1.1,5.15-1.07.88,2.76-.07,5.62.65,8.77h11.57v-8.55c3.17-.74,4.75.16,6.83,2.48s1.69,6.27,5.17,7.64C701.3,385.55,701.41,388.23,700.86,388.62Z" transform="translate(-647.03 -345.25)"/></svg>