<?xml version="1.0" encoding="utf-8"?>
<!-- Generator: Adobe Illustrator 24.0.1, SVG Export Plug-In . SVG Version: 6.00 Build 0)  -->
<svg version="1.1" xmlns="http://www.w3.org/2000/svg" xmlns:xlink="http://www.w3.org/1999/xlink" x="0px" y="0px"
	 viewBox="0 0 500 500" style="enable-background:new 0 0 500 500;" xml:space="preserve">
<style type="text/css">
	.st0{display:none;}
	.st1{display:inline;fill:#F7F7F7;}
	.st2{fill:#F79517;}
	.st3{fill:#38383A;}
	.st4{display:inline;}
	.st5{fill:#1D262D;}
</style>
<g id="BACKGROUND" class="st0">
	<rect class="st1" width="500" height="500"/>
</g>
<g id="OBJECTS">
	<g>
		<path class="st2" d="M116.2,186.1l7.2-26.6c1.4-5.1,4.6-7.6,9.4-7.6h17.8l3.7-13.7h-21.9c-11.3,0-18.1,4.4-20.6,13.4l-9.2,34.5H94
			l-3.5,13.1h8.4l-11.3,42.4h13.8l11.3-42.4h20.6l3.4-13.1H116.2z"/>
		<polygon class="st2" points="163.7,138.2 136.1,241.5 149.9,241.5 177.5,138.2 		"/>
		<polygon class="st2" points="224.2,151.3 227.7,138.2 186,138.2 182.6,151.3 196.5,151.3 172.3,241.5 186.1,241.5 210.3,151.3 		
			"/>
		<path class="st2" d="M251,136.8c-11,0-18.2,4.8-20.7,14.2L206,241.5h13.8l22.9-85.3c1-3.9,3.3-5.8,7-5.8c5.9,0,8,2.6,6.6,7.7
			L234,241.5h13.8l21.9-82.1C273.8,144.5,267.3,136.8,251,136.8z"/>
		<path class="st2" d="M297.9,159.4c1.4-5.1,4.4-7.6,9.2-7.6H325l3.7-13.7h-21.9c-11.3,0-18.1,4.4-20.6,13.4l-7.7,29.1h-8.6
			l-3.5,13.1h8.4l-6.6,24.8c-4.1,15.3,1.7,22.9,17.1,22.9h15.7l3.5-13.1h-16.4c-5.7,0-7.7-3-6.2-9l6.9-25.7h20.3l3.5-13.1h-20.3
			L297.9,159.4z"/>
		<path class="st2" d="M352.3,183.4l-6.2-3.2c-4.3-2.2-5.9-5.5-4.7-10.1l3.7-13.9c1.1-3.6,3.9-5.8,7.6-5.8c4.8,0,7,2.9,5.9,7.7
			l-1.7,6.8h13.8l1.4-5.5c3.6-14.2-3.5-22.6-18.8-22.6c-10.6,0-18.2,5.2-20.7,14.2l-5.2,19.7c-2.6,9.8,0.4,16.7,8.6,20.7l6.1,3
			c3.9,2.2,5.4,5.7,4,10.8l-4.7,18.2c-1.1,3.9-3.7,5.8-7.7,5.8c-5.1,0-7.2-2.6-5.9-7.7l2.3-9.7h-13.8l-2.1,8.4
			c-3.6,14.9,2.8,22.6,18.8,22.6c11.2,0,18.6-5.8,21.5-17l5.5-20.7C362.8,194.7,360.2,187.7,352.3,183.4z"/>
		<path class="st2" d="M404,136.8c-10.6,0-18.2,5.2-20.7,14.2l-5.2,19.7c-2.6,9.8,0.4,16.7,8.6,20.7l6.1,3c3.9,2.2,5.4,5.7,4,10.8
			l-4.7,18.2c-1.1,3.9-3.7,5.8-7.7,5.8c-5.1,0-7.2-2.6-5.9-7.7l2.3-9.7h-13.8l-2.1,8.4c-3.6,14.9,2.8,22.6,18.8,22.6
			c11.2,0,18.6-5.8,21.5-17l5.5-20.7c2.8-10.5,0.1-17.5-7.7-21.8l-6.2-3.2c-4.3-2.2-5.9-5.5-4.7-10.1l3.7-13.9
			c1.1-3.6,3.9-5.8,7.6-5.8c4.8,0,7,2.9,5.9,7.7l-1.7,6.8h13.8l1.4-5.5C426.4,145.2,419.4,136.8,404,136.8z"/>
	</g>
	<g>
		<g>
			<path class="st3" d="M205.4,260.1c-9.9,0-16.3,4.3-18.5,12.6l-16.4,61.5c-3.6,13.2,2.2,20.1,16.8,20.1c9.9,0,16.2-4.3,18.4-12.6
				l10.2-37.8h-18.7l-3.1,11.6h6.4l-5.9,21.6c-0.9,3.4-3.2,5.1-6.6,5.1c-4.7,0-6.6-2.3-5.4-6.9l15.4-57.9c0.9-3.4,3.3-5.1,6.9-5.1
				c4.5,0,6.2,2.3,5.3,6.9l-1.3,6h12.1l1.1-4.9C224.9,267,219.2,260.1,205.4,260.1z"/>
			<path class="st3" d="M273.2,261.3H261l-9.8,36c-0.9,3.4-3.2,5.1-6.5,5.1c-4.9,0-6.7-2.3-5.5-6.9l9.3-34.3h-12.1l-9.2,33.2
				c-2.8,9.9-0.1,16.3,7.6,18.9L224.3,353h12.2l10.3-38.6c8.1-0.7,13.5-4.9,15.4-12.5L273.2,261.3z"/>
			<path class="st3" d="M321.3,260.1c-6.1,0-10.8,3.3-13.8,9.8c-0.5-6.5-4.4-9.8-11.6-9.8c-7.7,0-13,4.3-15.2,12.6L259.2,353h12.2
				l20.3-76.9c0.6-2.6,2.2-3.9,4.7-3.9c3.1,0,4,2.3,2.8,6.9l-19.7,74h12.2l20.6-76.9c0.6-2.6,2.2-3.9,4.7-3.9c2.9,0,3.8,2.3,2.6,6.9
				l-19.7,74h12.2l19.3-72.9C335,267,331.4,260.1,321.3,260.1z"/>
		</g>
		<g>
			<g>
				<rect x="87.6" y="255.9" class="st3" width="22.6" height="98.7"/>
				<polygon class="st3" points="165.3,292.8 136.2,292.8 136.2,255.9 113.6,255.9 113.6,354.7 136.2,354.7 136.2,317.9 
					158.4,317.9 				"/>
			</g>
			<circle class="st3" cx="86.7" cy="302.5" r="12.9"/>
		</g>
		<g>
			<g>
				<rect x="390.9" y="255.9" class="st3" width="22.6" height="98.7"/>
				<polygon class="st3" points="364.9,255.9 364.9,292.8 341.5,292.8 334.6,317.9 364.9,317.9 364.9,354.7 387.5,354.7 
					387.5,255.9 				"/>
			</g>
			<path class="st3" d="M426.1,302.5c0,7.1-5.8,12.9-12.9,12.9c-7.1,0-12.9-5.8-12.9-12.9c0-7.1,5.8-12.9,12.9-12.9
				C420.3,289.6,426.1,295.4,426.1,302.5z"/>
		</g>
	</g>
</g>
<g id="DESIGNED_BY_FREEPIK" class="st0">
	<g class="st4">
		<g id="XMLID_457_">
			<g id="XMLID_486_">
				<g id="XMLID_505_">
					<path id="XMLID_513_" class="st5" d="M257.2,473.4c-0.4,0.4-0.8,0.9-1.1,1.5l-0.5-0.2c-0.1-0.3-0.3-0.5-0.7-0.5
						c-0.3,0-0.6,0.3-0.5,0.7c0,0.3,0.3,0.6,0.7,0.5c0.1,0,0.1,0,0.2-0.1l0.5,0.2c-0.3,0.6-0.4,1.1-0.5,1.7l0.7,0.1
						c0.2-1.3,0.8-2.5,1.8-3.5L257.2,473.4z"/>
					<path id="XMLID_512_" class="st5" d="M262.7,471.1c-0.2,0-0.3,0-0.5,0l-0.1-0.6c0.2-0.1,0.3-0.4,0.3-0.6c0-0.4-0.4-0.7-0.8-0.6
						c-0.4,0-0.7,0.4-0.6,0.8c0,0.3,0.2,0.5,0.4,0.6l0.1,0.6c-0.7,0.1-1.4,0.3-2.1,0.6l0.3,0.7c0.9-0.4,1.9-0.7,3-0.7
						c0.5,0,1,0.1,1.5,0.2l0.2-0.7C263.8,471.2,263.2,471.1,262.7,471.1z"/>
					<path id="XMLID_511_" class="st5" d="M269.3,473.7c0.3,0,0.6-0.3,0.5-0.7c0-0.3-0.3-0.6-0.7-0.5c-0.3,0-0.5,0.3-0.5,0.6
						l-0.4,0.4c-0.4-0.4-0.9-0.8-1.4-1.1l-0.4,0.6c1.1,0.7,2,1.7,2.6,2.9l0.7-0.3c-0.3-0.6-0.6-1.1-0.9-1.5l0.4-0.4
						C269.2,473.7,269.2,473.7,269.3,473.7z"/>
					<path id="XMLID_510_" class="st5" d="M262.1,481.3c-0.4,0-0.8,0-1.2,0c-0.9,0-1.7-0.1-2.5-0.2c-0.4-0.1-0.8-0.2-1.3-0.3
						c1,1.9,3.1,3.1,5.4,3.1c2.9,0,5.3-1.9,5.9-4.5c-0.7,0.4-1.5,0.8-2.5,1.1C264.9,481,263.6,481.2,262.1,481.3z"/>
					<path id="XMLID_506_" class="st5" d="M262.7,472.6c-3.4,0-6.1,2.7-6.1,5.9c0,0.4,0,0.8,0.1,1.3c0.7,0.5,2.7,0.9,5.3,0.7
						c2.9-0.2,5.3-1,6.7-2.2c0-0.2,0-0.4,0-0.6C268.3,474.9,265.7,472.6,262.7,472.6z M260.5,479.1c-1,0-1.8-0.8-1.8-1.8
						c0-1,0.8-1.9,1.8-1.9c1,0,1.8,0.8,1.8,1.9C262.4,478.3,261.5,479.1,260.5,479.1z M265.3,478.2c-0.8,0-1.4-0.6-1.4-1.4
						s0.6-1.4,1.4-1.4s1.4,0.6,1.4,1.4S266,478.2,265.3,478.2z"/>
				</g>
				<path id="XMLID_503_" class="st5" d="M278.7,474.5c-0.3-0.1-0.8-0.3-1.4-0.2c-0.6,0.1-0.8,0.3-0.8,1v0.9h2.2v1.7h-2.2v5.5h-1.9
					v-5.5h-1.3v-1.7h1.3v-0.9c0-1.7,0.9-2.8,2.6-2.8c0.6,0,1.2,0.1,1.6,0.3V474.5z"/>
				<path id="XMLID_501_" class="st5" d="M283.4,477.8c-0.2,0-0.4,0-0.5,0c-0.9,0-1.5,0.5-1.5,1.6v3.9h-1.9v-7.2h1.9v0.8
					c0.5-0.7,1.1-1,2-1c0.4,0,0.8,0.1,1.1,0.3L283.4,477.8z"/>
				<path id="XMLID_498_" class="st5" d="M291.1,479.7c0,0.2,0,0.5,0,0.7h-5.1c0.2,1,0.9,1.5,1.8,1.5c0.6,0,1.3-0.3,1.8-0.7l1.1,1.2
					c-0.8,0.7-1.9,1.1-3.1,1.1c-2.2,0-3.7-1.5-3.7-3.8c0-2.3,1.5-3.8,3.6-3.8C289.6,475.9,291.1,477.5,291.1,479.7z M285.9,479h3.2
					c-0.2-0.9-0.7-1.4-1.6-1.4C286.6,477.6,286.1,478.2,285.9,479z"/>
				<path id="XMLID_495_" class="st5" d="M298.7,479.7c0,0.2,0,0.5,0,0.7h-5.1c0.2,1,0.9,1.5,1.8,1.5c0.6,0,1.3-0.3,1.8-0.7l1.1,1.2
					c-0.8,0.7-1.9,1.1-3.1,1.1c-2.2,0-3.7-1.5-3.7-3.8c0-2.3,1.5-3.8,3.6-3.8C297.3,475.9,298.7,477.5,298.7,479.7z M293.6,479h3.2
					c-0.2-0.9-0.7-1.4-1.6-1.4C294.3,477.6,293.8,478.2,293.6,479z"/>
				<path id="XMLID_492_" class="st5" d="M307.1,479.7c0,2.2-1.5,3.8-3.5,3.8c-1,0-1.6-0.4-2.1-0.9v3.7h-1.9v-10.1h1.9v0.8
					c0.5-0.6,1.2-1,2.1-1C305.6,475.9,307.1,477.6,307.1,479.7z M301.4,479.7c0,1.1,0.7,2,1.8,2c1.1,0,1.8-0.9,1.8-2
					c0-1.1-0.7-2-1.8-2C302.1,477.7,301.4,478.6,301.4,479.7z"/>
				<path id="XMLID_489_" class="st5" d="M310.2,473.8c0,0.7-0.5,1.2-1.2,1.2c-0.7,0-1.2-0.5-1.2-1.2c0-0.7,0.5-1.2,1.2-1.2
					C309.6,472.5,310.2,473.1,310.2,473.8z M309.9,483.3H308v-7.2h1.9V483.3z"/>
				<path id="XMLID_487_" class="st5" d="M313.1,478.7l2.7-2.6h2.4l-3.5,3.4l3.5,3.8h-2.4l-2.7-2.9v2.9h-1.9v-10.7h1.9V478.7z"/>
			</g>
			<g id="XMLID_458_">
				<path id="XMLID_483_" class="st5" d="M181.5,483.2v-1.1c-0.5,0.7-1.4,1.2-2.4,1.2c-1.8,0-3.1-1.4-3.1-3.7c0-2.3,1.3-3.7,3.1-3.7
					c1,0,1.8,0.5,2.4,1.2v-3.8h1.1v9.8H181.5z M181.5,481.3v-3.2c-0.4-0.6-1.2-1.1-2.1-1.1c-1.4,0-2.3,1.2-2.3,2.7
					c0,1.6,0.8,2.7,2.3,2.7C180.3,482.4,181.1,481.9,181.5,481.3z"/>
				<path id="XMLID_480_" class="st5" d="M184,479.7c0-2.1,1.5-3.7,3.5-3.7c2.1,0,3.4,1.7,3.4,3.8v0.3h-5.7c0.1,1.3,1,2.4,2.5,2.4
					c0.8,0,1.6-0.3,2.2-0.9l0.5,0.7c-0.7,0.7-1.7,1.1-2.8,1.1C185.5,483.4,184,481.9,184,479.7z M187.5,476.9
					c-1.5,0-2.3,1.3-2.3,2.4h4.6C189.8,478.2,189.1,476.9,187.5,476.9z"/>
				<path id="XMLID_478_" class="st5" d="M191.7,482.3l0.6-0.8c0.5,0.5,1.4,1,2.3,1c1.1,0,1.7-0.5,1.7-1.2c0-1.7-4.4-0.7-4.4-3.3
					c0-1.1,1-2,2.6-2c1.2,0,2.1,0.5,2.6,1l-0.5,0.8c-0.4-0.5-1.2-0.9-2.1-0.9c-1,0-1.6,0.5-1.6,1.1c0,1.6,4.4,0.5,4.4,3.3
					c0,1.2-1,2.1-2.8,2.1C193.4,483.4,192.4,483.1,191.7,482.3z"/>
				<path id="XMLID_475_" class="st5" d="M198.6,474.4c0-0.4,0.3-0.7,0.7-0.7c0.4,0,0.7,0.3,0.7,0.7c0,0.4-0.3,0.7-0.7,0.7
					C198.9,475.2,198.6,474.8,198.6,474.4z M198.8,483.2v-7.1h1.1v7.1H198.8z"/>
				<path id="XMLID_472_" class="st5" d="M201.7,485.1l0.6-0.8c0.6,0.7,1.3,1,2.3,1c1.2,0,2.3-0.6,2.3-2.1v-1
					c-0.5,0.7-1.4,1.3-2.4,1.3c-1.8,0-3.1-1.4-3.1-3.7c0-2.3,1.3-3.7,3.1-3.7c1,0,1.8,0.5,2.4,1.2v-1.1h1.1v6.9
					c0,2.3-1.6,3.1-3.4,3.1C203.3,486.1,202.5,485.9,201.7,485.1z M206.8,481.2v-3.1c-0.4-0.6-1.2-1.1-2.1-1.1
					c-1.4,0-2.3,1.1-2.3,2.7c0,1.6,0.8,2.7,2.3,2.7C205.6,482.4,206.4,481.8,206.8,481.2z"/>
				<path id="XMLID_470_" class="st5" d="M214.5,483.2v-4.6c0-1.2-0.6-1.6-1.6-1.6c-0.9,0-1.7,0.5-2.1,1.1v5.2h-1.1v-7.1h1.1v1
					c0.5-0.6,1.5-1.2,2.5-1.2c1.5,0,2.3,0.7,2.3,2.3v5H214.5z"/>
				<path id="XMLID_467_" class="st5" d="M217,479.7c0-2.1,1.5-3.7,3.5-3.7c2.1,0,3.4,1.7,3.4,3.8v0.3h-5.7c0.1,1.3,1,2.4,2.5,2.4
					c0.8,0,1.6-0.3,2.2-0.9l0.5,0.7c-0.7,0.7-1.7,1.1-2.8,1.1C218.5,483.4,217,481.9,217,479.7z M220.5,476.9
					c-1.5,0-2.3,1.3-2.3,2.4h4.6C222.8,478.2,222.1,476.9,220.5,476.9z"/>
				<path id="XMLID_464_" class="st5" d="M230.4,483.2v-1.1c-0.5,0.7-1.4,1.2-2.4,1.2c-1.8,0-3.1-1.4-3.1-3.7c0-2.3,1.3-3.7,3.1-3.7
					c1,0,1.8,0.5,2.4,1.2v-3.8h1.1v9.8H230.4z M230.4,481.3v-3.2c-0.4-0.6-1.2-1.1-2.1-1.1c-1.4,0-2.3,1.2-2.3,2.7
					c0,1.6,0.8,2.7,2.3,2.7C229.2,482.4,230,481.9,230.4,481.3z"/>
				<path id="XMLID_461_" class="st5" d="M236.8,483.2v-9.8h1.1v3.8c0.6-0.8,1.4-1.2,2.4-1.2c1.8,0,3.1,1.5,3.1,3.7
					c0,2.3-1.3,3.7-3.1,3.7c-1,0-1.9-0.5-2.4-1.2v1.1H236.8z M240,482.4c1.4,0,2.3-1.2,2.3-2.7c0-1.6-0.8-2.7-2.3-2.7
					c-0.9,0-1.7,0.5-2.1,1.1v3.2C238.3,481.9,239.1,482.4,240,482.4z"/>
				<path id="XMLID_459_" class="st5" d="M244.6,485c0.2,0.1,0.4,0.1,0.6,0.1c0.5,0,0.8-0.2,1.1-0.7l0.5-1.1l-3-7.1h1.2l2.4,5.8
					l2.3-5.8h1.2l-3.5,8.5c-0.4,1-1.1,1.4-2.1,1.4c-0.2,0-0.6,0-0.8-0.1L244.6,485z"/>
			</g>
		</g>
	</g>
</g>
</svg>
