<svg id="Layer_1" data-name="Layer 1" xmlns="http://www.w3.org/2000/svg" viewBox="0 0 464.99 465.65"><title>icons8-o-que-eu-faço-100</title><path d="M918.21,173.61c0-18-1.93-19.75-20.77-19.77q-150.54-.21-301.06,0c-21.21,0-22,1-22.13,23.51-.15,32-.46,64.1.17,96.13.25,12.69-1.86,20.65-14.92,27.7-28.75,15.51-39.63,44.67-32.58,77.14,2.17,10,3.17,19.59-1.19,29.57-4.89,11.2-1.69,23.48,6.55,30.21,13.37,10.93,17,26.68,24.4,40.31,9.73,17.89,3.09,34.69-14.76,43.7C526.19,530,509.8,536.69,494.31,545,476,554.89,462.5,568.75,456.73,590c-6.94,25.49-4.91,29.26,21.95,29.28q135.34.11,270.7,0c4.22,0,8.46.29,12.65-.1,8.71-.81,13.15-6.11,11.78-15-2.18-14.25-6.6-27.39-17.12-38.35-12-12.47-26.09-21-41.86-27.28-14.77-5.89-29.57-11.7-44.32-17.65-9-3.63-16.3-8.91-18.16-21.17,9-3.32,17.47-1.73,25.78-1.75,72.52-.14,145,0,217.57-.13,21,0,22.49-1.32,22.52-20.59Q918.43,325.41,918.21,173.61ZM809.6,219.24c3.6-4.3,8-6.12,12.92-2.19,4.37,3.49,8.4,7.4,12.48,11,10.9-7,14.31-19.24,22.92-27.16,4.38-4,8.23-9.09,14.79-4.34,5.84,4.24,5.92,9.42,1.63,15.06-9.52,12.56-18.79,25.31-28.45,37.77-5.07,6.55-10.88,6.85-16.82.67-6.34-6.61-13-13-19.22-19.66C806.61,227,806.52,222.92,809.6,219.24Zm.44,90.59c6.5-7.21,11.67-3,16.74,2,2.36,2.34,4.81,4.6,7.93,7.58,11.45-7.95,15.06-20,23.65-27.93,4.48-4.14,8.52-8.49,14.84-3.41,5.87,4.71,4.81,9.82.77,15.18-9,11.92-17.42,24.3-27,35.76-7.54,9.08-10.15,8.92-18.35,1.59-5.59-5-10.71-10.51-16-15.85C808.43,320.43,804.57,315.9,810,309.83ZM662.14,426.77c-7.21,3.23-9.94,9-11.43,15.42-2.37,10.11-8,18.07-13.52,26.58-14.69,22.63-6.3,54.19,17.88,66.63,14,7.24,29.25,12.23,43.89,18.36,19.38,8.11,38.92,16,49.72,36,1.24,2.29,2.06,4.4.62,7.91H477.61c1.85-18.57,13.81-27.46,27.13-34.78,12.47-6.85,25.53-12.61,38.18-19.15,7.41-3.83,14.63-8.07,21.74-12.43,11-6.74,15.69-16.53,15.33-29.58-.43-15.85.81-31.18-11-44.94-8.2-9.55-6.28-26.15-22-31.75-4.66-1.66-4.52-10.9-1.83-13.68,10.42-10.79,4.45-22.07,2.11-32.77-7.39-33.71,8.16-59.81,41.5-68.15,4.86-1.21,9.62-2.92,14.52-3.86s10.61-1.29,14,3.36c5.36,7.44,12.41,9.52,21.2,11.31,19.82,4,32.15,24.76,29.09,45.64-.85,5.8-.82,11.93-2.82,17.31-3.4,9.14-4.71,17.34,1.71,25.87C671.56,416.86,669.26,423.58,662.14,426.77ZM649.72,244.84c-5.05,0-10.2.42-15.1-.45-5.22-.93-9.55-4.2-9.08-10.18.45-5.72,4.65-8.58,10.12-9.34a55.82,55.82,0,0,1,7.55-.25q63.09,0,126.17,0c2.52,0,5.15-.25,7.54.37,5.17,1.36,9.54,4.28,9.08,10.26-.45,5.72-4.69,9-10.13,9.26-11.76.48-23.54.29-35.31.33s-23.55,0-35.33,0Q677.48,244.86,649.72,244.84ZM786,325.8c0,5.86-4.24,9.38-9.56,9.7-10,.6-20.13.18-30.2.18s-20.16.42-30.19-.17c-5.33-.32-9.56-3.85-9.56-9.7a9.35,9.35,0,0,1,9.54-9.69q30.19-.66,60.41,0A9.37,9.37,0,0,1,786,325.8Zm-8.37,100.57c-10.83.93-21.79.29-32.7.29-10.06,0-20.16.46-30.18-.23-4.11-.29-7.69-3.86-8.27-8.35-.78-6,3.49-10.54,8.36-10.7,20.95-.67,41.94-.52,62.91,0,4,.09,7.69,3.85,8.26,8.34A9.22,9.22,0,0,1,777.63,426.37Zm98-34.52c-9.79,14.43-19.4,29-31.62,41.58-4.14,4.25-8.8,4.5-13.12.3-7.16-7-14.26-14-21.13-21.28-3.23-3.43-3.18-7.53,0-11.18,3.69-4.29,8.09-5.91,12.95-2,4.31,3.5,8.32,7.37,12.38,11,11.44-7.91,15.23-20.9,24.68-29.2,4.06-3.56,8.07-6.23,13.12-2.26C877.22,382.3,879.14,386.65,875.62,391.85Z" transform="translate(-453.33 -153.74)"/></svg>