<svg data-name="Layer 1" xmlns="http://www.w3.org/2000/svg" viewBox="0 0 45.51 35.43"><path d="m17.05 15.7 5.7 7c4.75-2.58 9.1-4.95 13.47-7.3a22.21 22.21 0 0 1 2.28-1c1.54-.61 3-.57 3.92 1s.13 2.86-1.22 3.8a18.48 18.48 0 0 1-3 1.79c-5.79 2.55-9.84 7.18-14.75 11.91 7.78.12 14.92-.06 22 .78-3.37 2.63-7.17 1.4-10.74 1.61-4 .23-8 .05-12 .05H0c2.4-3.62 5.63-2.08 8.48-2.34s5.91-.06 9.36-.06c-3.66-4.52-7.06-8.58-10.31-12.77s-2.45-6.73 2.53-8.56c5.14-1.88 10.29-3.76 15.38-5.76 2-.77 4-1.66 5.11.87s-1.2 3.48-3 4.32c-3.31 1.57-6.68 2.98-10.5 4.66zM13.88 5.37A5.15 5.15 0 1 1 9.18.02a5.15 5.15 0 0 1 4.7 5.35z"/></svg>